<svg width="478" height="212" xmlns="http://www.w3.org/2000/svg" version="1.1">

 <g>
  <title>Layer 1</title>
  <path fill="#a79a88" id="svg_21" d="m0,164.66014c12.242,-3.207 24.656,-6.418 37.012,-9.4023l18.559,-4.4844c6.1953,-1.4844 12.449,-2.7812 18.664,-4.1836l18.496,-4.1094c3.1914,-0.67578 6.0078,-1.4883 8.8203,-2.2852c2.8242,-0.89453 5.7578,-1.7695 8.5234,-2.8945c5.6211,-2.1289 11.07,-4.6758 16.18,-7.7227c2.5664,-1.5117 5.0195,-3.1523 7.375,-4.8984c2.2461,-1.6953 4.7266,-3.8008 6.2422,-5.4336l0.85156,-0.91797l0.56641,-0.30859c6.9336,-3.7734 13.422,-6.1055 20.352,-8.3008c6.8594,-2.082 13.828,-3.6641 20.848,-4.8164c7.0508,-1.1602 14.027,-1.8203 21.246,-2.0703c7.4922,-0.10156 14.402,0.82422 21.375,1.7969c13.855,2.0664 27.383,4.8945 40.926,7.543c13.531,2.6836 27.043,5.2656 40.617,7.3633c13.574,2.0625 27.215,3.668 40.891,4.0938c13.648,0.4375 27.434,-0.32422 40.594,-3.6719c6.7031,-1.7695 13.273,-3.668 19.617,-6.1836c6.4219,-2.3789 12.523,-5.5625 18.121,-9.4453c5.668,-3.8594 10.215,-9.0391 15.062,-14c4.8594,-5.0195 11.34,-8.2617 18.105,-9.5938c-6.7305,1.5781 -12.98,5 -17.602,10.098c-4.6133,5.0508 -9.0664,10.5 -14.727,14.645c-5.5781,4.1758 -11.715,7.6445 -18.148,10.281c-6.4062,2.793 -13.055,4.9609 -19.629,6.9453c-13.508,3.9414 -27.547,5.1797 -41.457,5.2188c-13.938,0.04297 -27.82,-1.1094 -41.602,-2.7148c-13.781,-1.6406 -27.473,-3.7734 -41.113,-5.9922c-13.637,-2.1914 -27.238,-4.5352 -40.758,-6.0742c-6.707,-0.71875 -13.574,-1.332 -19.898,-1.0195c-6.5586,0.46094 -13.332,1.3203 -19.859,2.6367c-6.5586,1.3086 -13.027,3.0195 -19.309,5.1641c-6.1602,2.1445 -12.602,4.8477 -17.703,7.8633l1.418,-1.2227c-2.6953,3.1211 -5.0742,5.1289 -7.7734,7.3867c-2.6641,2.1289 -5.4102,4.1094 -8.25,5.9297c-5.6602,3.6445 -11.641,6.707 -17.793,9.2891c-3.0625,1.3555 -6.1836,2.4258 -9.3594,3.5508c-3.2539,1.0586 -6.5078,2.082 -9.4961,2.8281l-18.484,4.8008c-6.0977,1.5977 -12.215,3.0977 -18.301,4.7812l-18.25,5.0898c-12.191,3.3945 -24.215,6.9609 -36.391,10.613l-4.55897,-16.17224z"/>
  <path fill="#a79a88" id="svg_22" d="m39.32,156.22014s0.17188,-0.50391 0.49219,-1.4492c0.33984,-0.90234 0.84375,-2.2305 1.4844,-3.9141c1.3438,-3.3203 3.3594,-8.0117 6.4023,-13.406c1.5859,-2.6758 3.3203,-5.5547 5.5898,-8.4219c2.2773,-2.8438 4.8828,-5.7891 8.3672,-8.2383c0.88672,-0.59375 1.8594,-1.125 2.793,-1.6797l2.2383,-1.3086c1.5781,-0.96875 3.4336,-1.8828 4.5547,-3c2.625,-1.9727 5.2461,-4.6641 7.5391,-7.5469c4.5312,-5.8086 7.9453,-12.785 9.043,-19.594l0.35156,-2.5352c0.18359,-1.3281 0.33594,-1.8828 0.50391,-2.8516c0.10547,-1.6875 1.2148,-3.5625 1.9609,-5.2266c0.875,-1.625 2.0547,-2.832 3.0117,-4.1836c1.1602,-1.1367 2.2773,-2.2305 3.3555,-3.2812c4.5547,-3.8516 8.6875,-6.457 11.508,-8.3945c2.8242,-1.9258 4.4336,-3.0312 4.4336,-3.0312s-1.5117,1.2422 -4.1484,3.4141c-2.6328,2.1719 -6.5312,5.168 -10.59,9.2734c-0.92969,1.0859 -1.8945,2.2188 -2.8945,3.3828c-0.74609,1.3008 -1.7695,2.5703 -2.3516,3.9648c-0.42969,1.4609 -1.2695,2.5938 -1.2617,4.5039l-0.23438,2.4414l-0.12891,2.8906c-0.20312,3.8906 -1.2266,7.7461 -2.5547,11.547c-1.3945,3.7695 -3.2148,7.4531 -5.4492,10.922c-2.2734,3.4375 -4.8086,6.6758 -8.1094,9.6211c-1.5781,1.6562 -3.1289,2.5547 -4.6641,3.7031c-1.457,1.0469 -2.8945,2.0781 -4.3125,3.0898c-4.7109,4.1172 -7.8438,9.9297 -10.168,14.887c-2.2773,5.0469 -3.7422,9.5078 -4.6875,12.621c-0.4375,1.5586 -0.77734,2.7812 -1.0078,3.6172c-0.19531,0.8125 -0.30078,1.2422 -0.30078,1.2422l-10.76569,-3.0588z"/>
  <path fill="#a79a88" id="svg_23" d="m204.5,103.87014s1.8711,-1.8477 5.1406,-5.0781c3.2812,-3.2031 8.0977,-7.6484 14.211,-12.73c1.5781,-1.2305 3.2305,-2.5195 4.9336,-3.8477c1.8555,-1.2383 3.7695,-2.5156 5.7344,-3.832c2.1406,-1.0859 5.0195,-2.5273 6.9844,-3.1406c2.1562,-0.71875 4.0898,-1.5117 6.2891,-2.4531c8.4727,-3.7734 17.473,-8.7031 24.535,-15.355c1.793,-1.6406 3.2891,-3.4844 4.5547,-5.3867c0.60938,-0.95313 1.0938,-1.9609 1.5117,-2.957l0.46484,-1.5234c0.33594,-1.2383 0.47656,-1.3672 0.72266,-2.1016c0.19141,-1.0586 1.5664,-2.7422 2.5742,-3.9766c1.1602,-0.83984 2.25,-1.8984 3.4648,-2.457c2.3906,-1.332 4.8164,-2.1914 7.2031,-2.9062c9.5703,-2.6836 18.531,-3.5234 26.145,-4.7617c7.6289,-1.1133 13.934,-2.3086 18.277,-3.4609c2.1914,-0.51953 3.8594,-1.0859 5.0078,-1.4688c1.1484,-0.37109 1.7578,-0.57031 1.7578,-0.57031s-0.59375,0.24219 -1.7188,0.6875c-1.1133,0.46094 -2.7539,1.1406 -4.9102,1.8086c-4.2773,1.4492 -10.539,3.0781 -18.094,4.7148c-7.5,1.7422 -16.496,3.2422 -25.34,6.4062c-2.1836,0.8125 -4.3359,1.7656 -6.2109,2.9922c-1.0195,0.54297 -1.6523,1.3828 -2.5078,2.0234c-0.33984,0.85547 -1.043,0.89453 -1.3203,2.4141c-0.12891,0.46875 -0.46875,1.5195 -0.4375,1.5195l-0.5,2.1719c-0.44922,1.3789 -1.0117,2.7422 -1.6914,3.9883c-1.3906,2.4688 -3.0352,4.7539 -4.9062,6.7305c-7.4531,8.0078 -16.48,13.691 -25.266,18.379c-2.1602,1.1094 -4.5586,2.2695 -6.7539,3.168c-0.53906,0.24219 -1.0625,0.39844 -1.6016,0.70703l-1.2227,0.70703c-0.8125,0.48828 -1.6016,0.83984 -2.4141,1.3789c-1.6289,1.2617 -3.207,2.4805 -4.7383,3.6641c-1.4883,1.332 -2.9297,2.625 -4.3125,3.8594c-5.4219,5.168 -9.7734,9.7617 -12.719,13.059c-2.918,3.3047 -4.5859,5.1914 -4.5859,5.1914l-8.2606,-7.56415z"/>
  <path fill="#a79a88" id="svg_24" d="m278.82,116.25014s0.83594,1.8477 2.4805,4.9883c1.6172,3.1641 4.1172,7.6172 7.4766,12.668c0.86719,1.2383 1.7734,2.5273 2.7109,3.8594c1.0312,1.25 2.0938,2.5273 3.1875,3.8516c2.3398,2.3984 4.8203,5.1172 8.0977,6.332c3.2266,1.3906 7.1406,2.3242 11.059,3.0859c3.9492,0.74609 8.043,1.3203 12.141,1.9648c4.0938,0.63281 8.2305,1.3008 12.254,2.4023c2.0039,0.54297 4.0039,1.2148 5.8789,2.2305c0.96484,0.41016 1.7852,1.2383 2.6484,1.8555c0.6875,0.90625 1.4219,1.7969 1.8086,2.6328c3.6836,6.7969 7.9062,12.617 11.73,17.5c3.9219,4.7773 7.4688,8.5508 10.316,10.785c1.3047,1.2695 2.6367,1.832 3.4258,2.3906c0.82422,0.50781 1.2695,0.78516 1.2695,0.78516s-0.44922,-0.25391 -1.293,-0.72656c-0.81641,-0.51953 -2.1914,-1.043 -3.5508,-2.25c-2.957,-2.1211 -6.6797,-5.7695 -10.84,-10.41c-4.0273,-4.7227 -8.5898,-10.488 -12.594,-17.18c-1.5586,-3.3711 -5.5938,-4.4062 -9.3633,-5.3945c-3.875,-0.88672 -7.9648,-1.3711 -12.062,-1.8242c-4.1055,-0.46484 -8.2383,-0.875 -12.32,-1.4688c-4.0977,-0.63281 -8.082,-1.3477 -12.062,-2.8633c-4.1328,-1.4492 -6.9883,-4.3555 -9.6836,-6.8867c-1.2305,-1.3672 -2.4375,-2.6992 -3.5938,-3.9883c-1.0469,-1.3594 -2.0547,-2.6758 -3.0234,-3.9375c-3.7422,-5.1367 -6.5,-9.6133 -8.3164,-12.824c-1.8594,-3.1992 -2.8047,-5.0859 -2.8047,-5.0898l5.0226,-2.4882z"/>
  <path id="svg_26" d="m350.47,30.74014c-0.41016,0 -0.76172,-0.15625 -1.0312,-0.46094c-0.32422,-0.36328 -0.5,-0.92578 -0.51953,-1.707c-0.78516,0.27344 -1.7812,0.12891 -2.4023,-0.58984c-0.42578,-0.50391 -0.58203,-1.125 -0.44922,-1.8086c0.11719,-0.59766 0.45312,-1.2148 0.98438,-1.832c-0.21875,0.02344 -0.42578,0.03516 -0.62891,0.03516c-1.9883,0 -2.4688,-1.1328 -2.5859,-1.6172c-0.19531,-0.875 0.12891,-1.6523 0.92969,-2.2188c-0.62109,-0.46484 -1.1094,-1.0547 -1.0234,-1.7578c0.13281,-1.1094 1.5898,-1.5 1.8828,-1.5664c0.70703,-0.17187 1.7305,-0.00391 2.7109,0.29688c-0.20312,-0.29688 -0.39062,-0.62891 -0.58203,-0.98438c-0.44922,-0.875 -0.50781,-1.6016 -0.16797,-2.1562c0.20703,-0.33594 0.63672,-0.72656 1.5508,-0.80078c-0.04297,-0.50781 0.05469,-0.89453 0.28125,-1.1992c0.24219,-0.32031 0.60937,-0.48828 1.0547,-0.48828c0.71875,0 1.4961,0.46484 1.6406,0.55469c1.6562,1.0977 2.3633,2.8281 2.6602,4.082c1.2422,-1.1211 2.8516,-1.9336 4.0039,-1.9336c0.76172,0 1.1641,0.33984 1.3711,0.62891c0.54297,0.76563 0.45312,1.6406 0.18359,2.3398c0.6875,0.21875 1.5195,0.67578 1.8555,1.6367c0.11719,0.35156 0.16797,0.89453 -0.27344,1.5234c-0.65625,0.91797 -2.2852,1.7266 -3.9531,2.043c0.87891,1.0312 1.9492,2.7031 1.9219,4.7812c-0.03906,1.1328 -0.46094,2.3242 -1.5195,2.3242c-0.375,0 -0.75,-0.16797 -1.1406,-0.50781c-0.33594,0.40234 -0.81641,0.78906 -1.4297,0.78906c-0.69922,0 -1.3086,-0.5 -1.8125,-1.4766c-0.20313,-0.39063 -0.37109,-0.77734 -0.51563,-1.1406c-0.30859,0.99609 -0.72656,1.9375 -1.3008,2.4531c-0.13281,0.10547 -0.89453,0.75781 -1.6953,0.75781l-0.00028,0.00012zm0.12891,-5.1641l-0.21094,1.832c-0.16797,1.457 0.03906,1.8594 0.09375,1.9375c0.18359,-0.00391 0.57031,-0.24609 0.75781,-0.42188c0.81641,-0.73438 1.3945,-3.5508 1.5625,-5.1523l1.3906,0.13281c0,0.01563 -0.13281,1.8125 1.0469,4.1094c0.30078,0.58984 0.53125,0.71875 0.57031,0.71875c0.13281,0 0.48828,-0.39844 0.67578,-0.81641l0.48047,-1.0469l0.71094,0.90234c0.48828,0.62109 0.72266,0.6875 0.72266,0.6875c-0.04297,-0.0625 0.07813,-0.55859 0.09375,-0.95703c0.03516,-2.7344 -2.4766,-4.7266 -2.5039,-4.75l-1.6445,-1.2891l2.0898,0.03516l0.00391,0c1.8438,0 3.8242,-0.86328 4.3438,-1.6016c0.03906,-0.05078 0.11719,-0.17969 0.09375,-0.24609c-0.28516,-0.80469 -1.6172,-0.89062 -1.6289,-0.89062l-1.3438,-0.05469l0.81641,-1.0703c0.0039,-0.01172 0.72656,-0.99219 0.29688,-1.6016c0,0 -0.0625,-0.03906 -0.23047,-0.03906c-0.95312,0 -2.9062,1.1133 -3.9102,2.5039l-1.2227,1.6758l-0.05078,-2.0781c0,-0.02735 -0.09375,-3.0508 -2.2383,-4.4727c-0.19531,-0.11719 -0.59766,-0.3125 -0.84375,-0.33203c0.01562,0.0664 0.01172,0.32031 0.15234,0.82812l0.30078,1.0586l-1.0859,-0.18359c-0.02344,0 -0.20313,-0.02735 -0.42969,-0.02735c-0.46875,0 -0.63672,0.11719 -0.65625,0.14063c-0.02344,0.03516 -0.05078,0.26953 0.21875,0.78516c1.0977,2.1406 2.582,2.9922 2.5977,2.9961l-0.66797,1.2305c-0.81641,-0.4375 -3.2461,-1.5664 -4.6328,-1.5664c-0.13281,0 -0.25781,0.01172 -0.35938,0.03516c-0.33594,0.07812 -0.73828,0.28125 -0.81641,0.40234c0.02343,0 0.19141,0.375 1.457,1.0234l1.6797,0.86328l-1.8438,0.44141c-0.01172,0 -1.3984,0.34766 -1.2148,1.1328c0.10547,0.44141 0.71875,0.53906 1.2227,0.53906c1.1094,0 2.6328,-0.46484 4.2969,-1.3203l0.63281,1.25c-2.6367,1.3555 -3.7539,2.7539 -3.9102,3.5391c-0.06641,0.33984 0.05078,0.51953 0.13281,0.62891c0.50781,0.58203 1.4336,-0.07813 1.6445,-0.27344l1.35943,-1.23824z"/>
  <path id="svg_28" d="m386.81,210.91014c-0.57812,0 -1.6641,-0.26172 -2.4414,-2.0312c-0.02344,-0.05469 -0.04297,-0.11328 -0.06641,-0.16406c-0.62109,1.6055 -1.6953,2.4297 -2.8789,2.1406c-0.86719,-0.21875 -1.418,-0.86719 -1.5469,-1.8359c-1.0547,0.51562 -1.8633,0.41406 -2.3281,-0.16797c-0.55859,-0.71094 -0.30078,-1.8867 -0.24219,-2.1094c0.17969,-0.73828 0.79688,-1.5469 1.5,-2.2734c-0.35156,0.03906 -0.73438,0.0625 -1.1367,0.0625c-1.0547,0 -1.7422,-0.32031 -2.0508,-0.94141c-0.27344,-0.54687 -0.15234,-1.1523 0.05079,-1.6367c-0.46875,-0.20312 -0.94141,-0.54297 -1.043,-1.1211c-0.16797,-1.0312 1.0234,-1.8242 1.3945,-2.043c0.87891,-0.49219 1.8633,-0.74609 2.9414,-0.74609c0.70703,0 1.3594,0.11328 1.8984,0.24219c-0.42969,-1.6172 -0.42188,-3.4219 0.11327,-4.4531c0.35156,-0.67188 0.83594,-0.875 1.1875,-0.92969c1.0078,-0.10547 1.7031,0.39063 2.1602,0.90625c0.50781,-0.50781 1.3281,-1.0742 2.3008,-0.90625c0.52734,0.07813 0.96484,0.41016 1.2383,0.95313c0.51953,1.0195 0.49219,2.8164 0.01172,4.4414c0.58203,-0.13281 1.2812,-0.25391 2.0508,-0.25391c1.1328,0 2.168,0.24609 3.0742,0.72656c0.39844,0.22266 1.6562,1.0117 1.4961,2.0508c-0.10156,0.59375 -0.59375,0.94141 -1.0938,1.1367c0.19531,0.46875 0.32422,1.0586 0.0625,1.5977c-0.30859,0.64453 -1.0352,0.97266 -2.1562,0.97266c-0.44141,0 -0.85547,-0.02344 -1.25,-0.06641c0.74609,0.72656 1.3906,1.5273 1.5859,2.2695c0.0625,0.22266 0.33203,1.3711 -0.23047,2.1016c-0.47656,0.62891 -1.3398,0.71875 -2.4922,0.16406c-0.04297,0.3125 -0.13281,0.63281 -0.3125,0.92969c-0.28516,0.47656 -0.73438,0.80078 -1.3047,0.93359c-0.17578,0.02735 -0.33203,0.05078 -0.49219,0.05078l0.00008,-0.00012zm-1.8281,-6.6875c0,1.6445 0.24219,3.1016 0.67188,4.082c0.375,0.86328 0.84375,1.3047 1.3164,1.1758c0.26172,-0.0625 0.36328,-0.18359 0.42578,-0.28516c0.23438,-0.39062 0.125,-1.082 0.07422,-1.293l-0.46484,-1.793l1.5273,1.0352c1.082,0.72656 1.5664,0.80469 1.7305,0.80469c0.11328,-0.09375 0.10547,-0.54688 0.01562,-0.86719c-0.28125,-1.0586 -2.5195,-2.8555 -3.8711,-3.7422l0.75781,-1.1758c0.01563,0.01172 1.5508,0.95312 4.1328,0.95312c0.66797,0 0.87891,-0.14453 0.89453,-0.17969c0.06641,-0.13281 -0.15234,-0.64844 -0.41406,-0.98047l-0.72266,-0.90625l1.1367,-0.21875c0.77734,-0.14453 0.94141,-0.33203 0.94141,-0.33203c-0.0039,0.00391 -0.46094,-0.32031 -0.8125,-0.51562c-0.69531,-0.36328 -1.5078,-0.55859 -2.4062,-0.55859c-1.6055,0 -2.9453,0.60547 -2.957,0.60938l-1.8867,0.86328l0.97266,-1.8242c0.83594,-1.5664 0.99219,-3.7617 0.56641,-4.5977c-0.02734,-0.0625 -0.10547,-0.19141 -0.17969,-0.20312l-0.01172,0c-0.90625,0 -1.5234,1.0352 -1.5273,1.0469l-0.66797,1.1602l-0.57812,-1.2109c-0.0039,-0.00391 -0.5,-1.0078 -1.1758,-1.0078c-0.11719,0.01172 -0.17969,0.0625 -0.25391,0.19531c-0.4375,0.83984 -0.33984,3.0977 0.4375,4.625l0.93359,1.8555l-1.8633,-0.90625c-0.01562,-0.00391 -1.2656,-0.60547 -2.7617,-0.60547c-0.83594,0 -1.5898,0.18359 -2.2383,0.55859c-0.28516,0.16797 -0.60547,0.45312 -0.69531,0.60938c0.06641,0 0.28516,0.125 0.81641,0.23438l1.0742,0.21875l-0.64844,0.89453c-0.29297,0.37891 -0.46484,0.88672 -0.39844,1.0117c0.01563,0.03516 0.20703,0.16406 0.80078,0.16406c2.4062,0 3.8398,-0.93359 3.8516,-0.94141l0.78906,1.1523c-1.2695,0.87891 -3.3828,2.6836 -3.6445,3.7422c-0.08593,0.33984 -0.08984,0.80078 -0.01172,0.91406c0.10156,-0.03516 0.54297,-0.08984 1.5742,-0.82422l1.5352,-1.0977l-0.45313,1.8359c0,0.01562 -0.33594,1.3945 0.45313,1.5977l0.01563,0c0.80469,0 1.7969,-1.6797 1.7969,-5.2656l1.4023,0l-0.00011,-0.00781z"/>
  <path id="svg_30" d="m120.32,61.80014c-0.37109,0 -0.69922,-0.14062 -0.96875,-0.41016c-0.33203,-0.33203 -0.54297,-0.84375 -0.64844,-1.5781c-0.72656,0.35156 -1.7461,0.34766 -2.4531,-0.3125c-0.48047,-0.45312 -0.70703,-1.0547 -0.64844,-1.7461c0.05078,-0.60938 0.3125,-1.2656 0.77344,-1.9336c-1.7031,0.375 -2.9727,-0.08594 -3.3711,-1.2031c-0.18359,-0.51953 -0.16406,-1.0547 0.06641,-1.5273c0.14453,-0.30859 0.36328,-0.56641 0.59766,-0.77734c-0.67188,-0.39062 -1.2266,-0.91797 -1.2148,-1.6289c0.01171,-1.1211 1.4102,-1.6758 1.6914,-1.7734c0.67188,-0.23438 1.6797,-0.20703 2.7266,-0.01172c-0.23047,-0.27344 -0.46094,-0.57812 -0.68359,-0.91406c-0.57031,-0.85547 -0.69922,-1.5977 -0.375,-2.1953c0.29688,-0.54688 0.86719,-0.79688 1.4102,-0.90234c-0.08594,-0.44141 -0.07422,-0.90625 0.18359,-1.2812c0.14063,-0.20703 0.47656,-0.55859 1.1641,-0.55859c0.67578,0 1.3984,0.33984 1.4844,0.37891c1.7695,0.90234 2.6641,2.543 3.1016,3.7539c1.1914,-1.3477 2.8555,-2.3867 4.0156,-2.3867c0.60937,0 0.98047,0.26172 1.1758,0.48047c0.62891,0.69922 0.63672,1.5742 0.45312,2.3008c0.69922,0.14062 1.5781,0.5 2.0234,1.4102c0.23047,0.47656 0.19141,1.0312 -0.10547,1.5586c-0.55859,0.99219 -2.0703,1.9648 -3.6836,2.4688c0.98438,0.91797 2.2344,2.457 2.4414,4.5234c0.02734,0.35156 0.07421,1.4883 -0.49219,2.1016c-0.46094,0.5 -1.1719,0.53125 -1.9492,0c-0.30859,0.46875 -0.79688,0.95312 -1.4844,0.95312c-0.64844,0 -1.2422,-0.41406 -1.8125,-1.2695c-0.24609,-0.36328 -0.45312,-0.72266 -0.63281,-1.0703c-0.19531,1.0234 -0.50391,2.0039 -1.0117,2.5742c-0.14062,0.16406 -0.89844,0.97656 -1.7734,0.97656l-0.00023,-0.00035zm-0.28516,-5.1719l-0.00391,1.8477c-0.0039,1.4766 0.24609,1.8555 0.30859,1.9141c0.15234,-0.01562 0.49219,-0.25781 0.71094,-0.50391c0.72656,-0.82422 0.98047,-3.6836 0.96484,-5.2969l1.3984,-0.02344c0,0.01563 0.06641,1.8242 1.4961,3.9648c0.35156,0.52734 0.59375,0.64844 0.64844,0.64844c0.125,0 0.44922,-0.46094 0.58203,-0.89062l0.35156,-1.1016l0.8125,0.82422c0.55859,0.56641 0.80078,0.59766 0.80078,0.59766c-0.05468,-0.05469 0.00391,-0.56641 -0.02343,-0.96484c-0.27344,-2.7031 -2.9961,-4.4141 -3.0234,-4.4297l-1.7656,-1.0859l2.0664,-0.20703c1.7695,-0.17188 3.6797,-1.2617 4.1445,-2.082c0.02734,-0.05468 0.10156,-0.19531 0.0664,-0.26172c-0.32031,-0.65625 -1.3203,-0.70703 -1.6172,-0.70703l-1.2383,0l0.48047,-1.0586c0.00391,-0.01172 0.61719,-1.0625 0.125,-1.6172l-0.02734,0c-1.0469,0 -2.9453,1.3711 -3.8203,2.918l-1.0234,1.8086l-0.28125,-2.0625c0,-0.02734 -0.4375,-3.0234 -2.7344,-4.1953c-0.17969,-0.08593 -0.59375,-0.23438 -0.86328,-0.23438c0,0.06641 0.02344,0.32031 0.22266,0.8125l0.41406,1.0195l-1.0977,-0.05469l-0.01172,0c-0.67578,0 -1.0117,0.15235 -1.0547,0.23438c-0.01563,0.03516 -0.02344,0.26172 0.30859,0.75781c1.332,2 2.9023,2.6758 2.918,2.6836l-0.52734,1.30081c-0.02734,-0.01172 -2.6953,-1.0547 -4.418,-1.0547c-0.37109,0 -0.59375,0.05078 -0.71094,0.09375c-0.32422,0.11719 -0.70703,0.36328 -0.76172,0.49219c0.02344,0 0.23047,0.35156 1.5586,0.85547l1.7695,0.67187l-1.7852,0.64453c-0.01172,0.00391 -1.3477,0.49219 -1.0742,1.2656c0.10156,0.26954 0.40234,0.41016 0.91406,0.41016c1.1094,0 2.7383,-0.66016 4.4727,-1.8203l0.77734,1.1641c-2.4648,1.6406 -3.4219,3.1602 -3.4883,3.9648c-0.02734,0.34766 0.10547,0.51563 0.21094,0.60938c0.19141,0.17187 0.34766,0.19531 0.44922,0.19531c0.46094,0 0.99609,-0.48828 1.1484,-0.66016l1.23061,-1.38676z"/>
  <path id="svg_32" d="m472.34,84.14014c-0.5,0 -0.90625,-0.30078 -1.2305,-0.68359c-0.34766,0.30859 -0.80078,0.58984 -1.3164,0.58984c-0.54688,0 -1.3008,-0.30078 -1.793,-1.7344c-0.14062,-0.41406 -0.25781,-0.81641 -0.34766,-1.1992c-0.44141,0.93359 -0.99609,1.8086 -1.6289,2.2344c-0.12891,0.08984 -0.83984,0.54297 -1.5625,0.54297c-0.46484,0 -0.86328,-0.19141 -1.125,-0.53125c-0.32031,-0.41016 -0.42578,-1.0117 -0.33594,-1.8477c-0.85547,0.17969 -1.7852,-0.12891 -2.2891,-0.92578c-0.35156,-0.55859 -0.42187,-1.1992 -0.19141,-1.8594c0.20312,-0.57812 0.62109,-1.1406 1.2383,-1.6758c-2.582,-0.09375 -2.918,-1.5625 -2.957,-2.0234c-0.08594,-1.0547 0.52734,-1.6953 1.2383,-2.0625c-0.55469,-0.55469 -0.95313,-1.1992 -0.76172,-1.8867c0.29297,-1.082 1.7852,-1.2656 2.082,-1.2891l0.22266,-0.01172c0.71875,0 1.5781,0.29688 2.4141,0.6875c-0.15234,-0.32422 -0.29688,-0.67188 -0.42578,-1.0547c-0.30078,-0.88672 -0.28125,-1.5781 0.07812,-2.0781c0.23438,-0.32422 0.73438,-0.70703 1.7148,-0.65625c0.02735,-0.46484 0.15625,-0.82422 0.38672,-1.082c0.23438,-0.26953 0.57812,-0.41406 0.94531,-0.41406c0.78906,0 1.6133,0.66797 1.7695,0.80078c1.4883,1.3203 1.9375,3.1289 2.0508,4.418c1.2227,-0.81641 2.6992,-1.3789 3.8242,-1.3789c1.082,0 1.5195,0.53125 1.6875,0.84375c0.42578,0.83594 0.21875,1.6875 -0.14453,2.3398c0.64844,0.3125 1.4062,0.88672 1.6055,1.875c0.0625,0.33203 0.05079,0.82422 -0.37891,1.3438c-0.82812,1.0117 -2.7383,1.5195 -4.3125,1.5898c0.71875,1.1367 1.5273,2.9531 1.2109,5c-0.07812,0.39453 -0.44922,2.1289 -1.668,2.1289l0.00014,0.00001zm-1.1367,-3.1758l0.57812,0.99609c0.24609,0.42969 0.42578,0.62891 0.52734,0.71875c0.11719,-0.17969 0.25391,-0.55469 0.3125,-0.875c0.42188,-2.6836 -1.7695,-5.0234 -1.793,-5.0508l-1.4336,-1.5l2.043,0.32422c1.8984,0.30078 4.0703,-0.39063 4.582,-1.0195c0.04297,-0.05078 0.09375,-0.12891 0.08594,-0.17969c-0.16406,-0.83594 -1.4766,-1.1133 -1.4883,-1.1133l-1.3203,-0.24219l0.96484,-0.94531c0.0039,-0.01172 0.86328,-0.87891 0.52734,-1.5391c-0.00391,-0.01172 -0.11719,-0.08984 -0.44141,-0.08984c-1.0352,0 -2.8906,0.77734 -4.0156,1.9375l-1.4492,1.4961l0.25391,-2.0664c0.0039,-0.02735 0.34766,-3.0352 -1.5781,-4.75c-0.23047,-0.19141 -0.60547,-0.41406 -0.80469,-0.45312c0.01562,0.0664 -0.02734,0.3125 0.04297,0.84375l0.14062,1.0859l-1.0547,-0.33203c-0.00391,0 -0.37109,-0.11719 -0.72656,-0.11719c-0.25781,0 -0.35156,0.0625 -0.35938,0.07422c-0.00391,0 -0.11328,0.17969 0.10547,0.8125c0.78906,2.2734 2.1328,3.3281 2.1445,3.3359l-0.83594,1.1211c-0.84375,-0.62109 -3.332,-2.2344 -4.6133,-2.2344c-0.44922,0.03906 -0.87891,0.17969 -0.96875,0.29297c0.02344,0 0.125,0.39844 1.2812,1.2227l1.5391,1.0977l-1.8867,0.17188c-0.01172,0 -1.4297,0.14062 -1.3555,0.95312c0.04297,0.54688 0.96875,0.74609 1.8203,0.74609c1.043,0 2.3359,-0.25781 3.7461,-0.74609l0.46094,1.3203c-2.8125,0.96484 -4.1094,2.1953 -4.3789,2.9531c-0.11719,0.32422 -0.02735,0.51953 0.05078,0.64453c0.38672,0.59766 1.4062,0.125 1.6641,-0.04297l1.5352,-1.0234l-0.46875,1.7852c-0.42969,1.6055 -0.17969,1.9492 -0.17188,1.9492c0.25391,-0.01563 0.64453,-0.21094 0.80078,-0.32031c0.91797,-0.60938 1.8828,-3.3164 2.2734,-4.8828l1.3594,0.33594c-0.00391,0.01562 -0.39062,1.7734 0.44141,4.2188c0.22266,0.64844 0.4375,0.78906 0.46484,0.78906c0.16797,0 0.56641,-0.35156 0.79688,-0.71094l0.60158,-0.99224z"/>
  <path fill="#e5e5e5" id="svg_33" d="m87.38,43.73014s0.28516,-2.5156 2.1406,-3.0312c1.8711,-0.50781 3.668,4.0078 3.3672,7.3789c0,0 3.3555,-3.7031 7.7266,-3.3555c0,0 4.418,0.44922 0.73438,2.9297c0,0 3.6172,1.9336 -0.07422,3.5039c-3.668,1.5664 -6.3945,1.1328 -6.3945,1.1328s6.1211,1.0586 7.6484,3.0078c0,0 2.957,3.7578 -3.1758,2.6094c0,0 1.8555,2.3398 0.02734,3.6914c-1.832,1.3477 -4.7773,-0.99219 -6.9336,-6.0352c2.1602,5.0469 1.9023,8.7539 -0.21094,9.0938c-2.1289,0.33984 -2.5742,-2.5977 -2.5742,-2.5977c-3.1289,5.1055 -3.8711,0.41016 -3.8711,0.41016c-0.39063,-2.4375 2.8008,-7.4766 2.8008,-7.4766s-1.4375,2.2188 -4.8984,3.7031c-3.4727,1.4844 -2.5039,-2.4062 -2.5039,-2.4062c-4.1094,0.84375 -1.5977,-2.5664 -1.5977,-2.5664c2.5664,-3.3203 7.3203,-3.0781 7.3203,-3.0781c-2.5703,-2.1445 -4.4336,-6.6289 -2.8945,-7.582c1.5469,-0.94922 3.3633,0.66797 3.3633,0.66797l-0.00006,-0.00003z"/>
  <path id="svg_36" d="m341.85,49.68014c-0.57812,0 -1.6641,-0.26172 -2.4414,-2.0312c-0.02344,-0.05078 -0.04297,-0.10547 -0.06641,-0.16406c-0.62109,1.6055 -1.6406,2.4531 -2.8789,2.1406c-0.86719,-0.21875 -1.418,-0.86719 -1.5469,-1.8359c-1.0547,0.50781 -1.8633,0.42188 -2.3281,-0.16797c-0.55859,-0.71094 -0.30078,-1.8828 -0.24219,-2.1094c0.17969,-0.73828 0.79688,-1.5469 1.5,-2.2734c-0.35156,0.03906 -0.73438,0.0625 -1.1367,0.0625c-1.0547,0 -1.7422,-0.32031 -2.0508,-0.93359c-0.27344,-0.54688 -0.15234,-1.1602 0.05078,-1.6367c-0.46875,-0.20313 -0.94141,-0.53906 -1.043,-1.1211c-0.16797,-1.0312 1.0234,-1.8242 1.3945,-2.043c0.87891,-0.49219 1.8633,-0.73828 2.9414,-0.73828c0.70703,0 1.3594,0.10547 1.8984,0.23438c-0.42969,-1.6172 -0.42188,-3.4219 0.11328,-4.4453c0.35156,-0.67578 0.83594,-0.87891 1.1875,-0.92969c1.0117,-0.15625 1.7031,0.38672 2.1602,0.90625c0.50781,-0.51562 1.332,-1.0352 2.3008,-0.91406c0.52734,0.07422 0.96484,0.41406 1.2383,0.95312c0.51953,1.0117 0.49219,2.8125 0.01172,4.4336c0.58203,-0.13281 1.2812,-0.24609 2.0508,-0.24609c1.1328,0 2.168,0.24219 3.0742,0.72266c0.39844,0.22266 1.6562,1.0117 1.4961,2.0508c-0.10156,0.59375 -0.59375,0.93359 -1.0938,1.1406c0.19531,0.46875 0.32422,1.0586 0.0625,1.5977c-0.30859,0.64453 -1.0352,0.97266 -2.1562,0.97266c-0.44141,0 -0.85547,-0.02344 -1.25,-0.06641c0.74609,0.72656 1.3906,1.5273 1.5859,2.2734c0.0625,0.22266 0.33203,1.3711 -0.23047,2.0938c-0.47656,0.62891 -1.332,0.71875 -2.4922,0.16797c-0.04297,0.30859 -0.13281,0.63281 -0.3125,0.92969c-0.28516,0.47656 -0.73438,0.80078 -1.3047,0.93359c-0.17578,0.02735 -0.33203,0.04297 -0.49219,0.04297l0.00008,-0.00014zm-1.832,-6.6797c0,1.6445 0.24219,3.0977 0.67188,4.0898c0.375,0.86328 0.84375,1.2812 1.3164,1.1758c0.26172,-0.0625 0.36328,-0.19141 0.42578,-0.29297c0.24219,-0.40234 0.11719,-1.1211 0.07422,-1.2891l-0.48828,-1.8086l1.5508,1.0469c1.082,0.72656 1.5664,0.80469 1.7305,0.80469c0.11328,-0.09375 0.10547,-0.54688 0.01562,-0.875c-0.28125,-1.0586 -2.5195,-2.8555 -3.8711,-3.7422l0.75781,-1.1758c0.01563,0.00391 1.5508,0.95313 4.1328,0.95313c0.66797,0 0.87891,-0.14453 0.89453,-0.17969c0.06641,-0.13281 -0.15234,-0.64844 -0.41406,-0.98047l-0.72266,-0.90234l1.1367,-0.21875c0.77734,-0.15234 0.94141,-0.33203 0.94141,-0.33203c0.00391,-0.02344 -0.46094,-0.32031 -0.8125,-0.51562c-0.69531,-0.36328 -1.5078,-0.55469 -2.4062,-0.55469c-1.6055,0 -2.9453,0.60547 -2.957,0.60938l-1.8867,0.86719l0.97266,-1.832c0.83594,-1.5742 0.99219,-3.7617 0.56641,-4.6016c-0.02734,-0.05469 -0.10547,-0.19141 -0.17969,-0.20312l-0.01171,0c-0.90625,0 -1.5234,1.0352 -1.5273,1.0469l-0.66797,1.1602l-0.57812,-1.2031c-0.00391,-0.01172 -0.5,-1.0078 -1.1758,-1.0078c-0.11719,0.01172 -0.17969,0.0625 -0.25391,0.19531c-0.4375,0.83984 -0.33984,3.0898 0.4375,4.6328l0.93359,1.8555l-1.8633,-0.90625c-0.01563,-0.00391 -1.2656,-0.60547 -2.7617,-0.60547c-0.83594,0 -1.5898,0.18359 -2.2383,0.55469c-0.28516,0.16797 -0.60547,0.46094 -0.69531,0.61719c0.0664,0 0.28516,0.125 0.81641,0.23438l1.0742,0.22266l-0.65625,0.88672c-0.29297,0.38672 -0.46484,0.89062 -0.39844,1.0117c0.01562,0.03516 0.20703,0.16406 0.80078,0.16406c2.4062,0 3.8398,-0.93359 3.8516,-0.94141l0.78906,1.1602c-1.2695,0.88672 -3.3828,2.6758 -3.6445,3.7422c-0.08594,0.33984 -0.08985,0.80078 -0.01172,0.91406c0.10156,-0.02734 0.54297,-0.08594 1.5742,-0.82422l1.5352,-1.1016l-0.45313,1.8438c0,0.01172 -0.33594,1.3984 0.45313,1.5977l0.01562,0c0.80469,0 1.7969,-1.6797 1.7969,-5.2656l1.4102,0l-0.00026,-0.02753z"/>
  <path fill="#BF7E96" id="svg_37" d="m115.17,68.12014s1.3984,-1.1523 2.5977,-0.49219c1.2031,0.67188 -0.125,3.8984 -1.9648,5.4805c0,0 3.5547,-0.23438 5.6094,2.1211c0,0 2.0312,2.4375 -1.0859,1.8828c0,0 0.87891,2.8008 -1.7812,1.7734c-2.6562,-1.0195 -3.8242,-2.6094 -3.8242,-2.6094s2.5938,3.6016 2.4023,5.3633c0,0 -0.35937,3.4102 -2.918,-0.23438c0,0 -0.21875,2.1289 -1.8242,1.9141c-1.6016,-0.21875 -1.9375,-2.8906 -0.52734,-6.5703c-1.4102,3.6797 -3.3867,5.4648 -4.6406,4.5859c-1.2539,-0.88672 -0.02344,-2.625 -0.02344,-2.625c-4.1367,1.0742 -2.1719,-1.7188 -2.1719,-1.7188c1.0117,-1.4492 5.1523,-2.457 5.1523,-2.457s-1.8438,0.42969 -4.3398,-0.53125c-2.5156,-0.96484 -0.07422,-2.4883 -0.07422,-2.4883c-2.5195,-1.6133 0.46484,-2.1172 0.46484,-2.1172c2.9609,-0.42969 5.2656,2.0625 5.2656,2.0625c-0.24219,-2.3867 1.043,-5.6328 2.3086,-5.3555c1.2578,0.27734 1.375,2.0156 1.375,2.0156l-0.00014,0.00012z"/>
  <path fill="#e5e5e5" id="svg_39" d="m354.83,200.87014s-1.2773,-1.2891 -0.72656,-2.543c0.55469,-1.2656 3.8867,-0.23438 5.6406,1.4492c0,0 -0.56641,-3.5156 1.6016,-5.7773c0,0 2.2305,-2.2461 1.9727,0.90625c0,0 2.7031,-1.1367 1.9336,1.6133c-0.77344,2.7344 -2.2383,4.0469 -2.2383,4.0469s3.3438,-2.918 5.1172,-2.8828c0,0 3.4258,0.04297 0.03516,2.9219c0,0 2.1406,0.02734 2.0703,1.6445c-0.06641,1.6172 -2.6953,2.1992 -6.4922,1.125c3.7969,1.0703 5.75,2.8711 4.9961,4.1992c-0.77344,1.3281 -2.6133,0.26172 -2.6133,0.26172c1.4492,4.0195 -1.5195,2.3242 -1.5195,2.3242c-1.5352,-0.87891 -2.9219,-4.9062 -2.9219,-4.9062s0.59375,1.793 -0.12891,4.3672c-0.72656,2.5938 -2.4688,0.30078 -2.4688,0.30078c-1.3711,2.6602 -2.1523,-0.26172 -2.1523,-0.26172c-0.70703,-2.9102 1.5625,-5.4375 1.5625,-5.4375c-2.3594,0.46094 -5.707,-0.51953 -5.5391,-1.8047c0.15234,-1.2734 1.8711,-1.5469 1.8711,-1.5469l0.00001,-0.00003z"/>
  <path id="svg_42" d="m335.6,24.53014c-0.77734,0 -1.5781,-0.53125 -2.4766,-1.6523c-0.51562,0.97266 -1.457,1.8633 -3.0078,1.5625c-0.83984,-0.17188 -1.5078,-0.6875 -1.9141,-1.4961c-0.44141,-0.86328 -0.58203,-2.0039 -0.44922,-3.3438c-1.7539,1.9648 -3.6836,2.5469 -5.0117,1.5195c-0.57031,-0.44141 -0.90625,-1.0234 -0.98438,-1.6914c-0.06641,-0.54688 0.05469,-1.0742 0.23047,-1.5273c-1.6055,0.10156 -2.5195,-0.24609 -2.9062,-1.0469c-0.54688,-1.1484 0.50391,-2.5312 0.72266,-2.793c0.72266,-0.90234 2.2305,-1.5859 3.7344,-2.0703c-0.67578,-0.18359 -1.418,-0.44141 -2.1992,-0.79688c-1.2617,-0.57031 -1.9102,-1.2891 -1.9375,-2.1445c-0.02344,-0.80469 0.54688,-1.4609 1.0703,-1.8945c-0.51953,-0.48828 -1.0234,-1.1758 -0.81641,-1.9375c0.33203,-1.2109 2.1523,-1.4609 2.6992,-1.5117c0.18359,-0.01172 0.35156,-0.01562 0.52734,-0.01562c2.6719,0 4.8438,1.3945 6.1055,2.4375c0.23047,-2.0039 1.0469,-4.0938 2.1094,-5.2305c0.69922,-0.75781 1.4766,-1.0469 2.2305,-0.82422c1.3477,0.39844 1.9141,1.5781 2.1523,2.457c0.93359,-0.38672 2.4375,-0.56641 3.4766,0.07812c0.39844,0.24609 0.88672,0.75 0.92578,1.7422c0.06641,1.5664 -1.0742,3.832 -2.6719,5.4922c1.7969,0.30078 4.6758,1.1406 6.5977,3.5156c0.33594,0.42969 1.3594,1.8867 0.84375,2.9414c-0.21094,0.42969 -0.82812,0.93359 -2.1602,0.78516c0.02734,0.57031 -0.04297,1.2617 -0.42578,1.7695c-0.23438,0.30859 -0.67578,0.67578 -1.4727,0.67578c-0.51562,0 -1.1016,-0.15625 -1.8086,-0.46875c-0.83594,-0.375 -1.5742,-0.78906 -2.2109,-1.1992c0.6875,1.4766 1.2422,3.0859 1.0625,4.2266c-0.02344,0.24609 -0.40625,2.4414 -2.0352,2.4414l-0.00001,0.00001zm-3.1055,-5.082l0.99609,1.5273c1.332,2.0508 1.9922,2.1523 2.1094,2.1523c0.28516,0 0.58984,-0.75781 0.66016,-1.2539c0.23437,-1.5195 -1.6875,-5.0742 -2.9453,-6.9609l1.1523,-0.78906c0.01563,0.02344 1.5117,2.1211 4.9062,3.6523c1.4336,0.64453 1.5352,0.28516 1.5859,0.22266c0.23438,-0.30859 0.15234,-1.1367 0.02734,-1.6055l-0.32031,-1.1484l1.1602,0.28125c0.89453,0.22266 1.5469,0.15234 1.5977,0.11719c0.03516,-0.17188 -0.3125,-0.90625 -0.71094,-1.4219c-2.4883,-3.0781 -7.1055,-3.1523 -7.1445,-3.1523l-2.0938,-0.01563l1.6875,-1.25c1.9766,-1.4609 3.3828,-4.0664 3.332,-5.4102c-0.01562,-0.46094 -0.19531,-0.57031 -0.25781,-0.60547c-0.28516,-0.17188 -0.59375,-0.25781 -0.95703,-0.25781c-0.98438,0 -1.9102,0.63281 -1.9219,0.63672l-1.0547,0.72266l-0.05078,-1.2773c0,-0.01562 -0.08593,-1.8555 -1.3086,-2.2109c-0.25391,-0.0625 -0.55469,0.14453 -0.81641,0.4375c-0.97266,1.0352 -1.9219,3.6172 -1.7734,5.8125l0.12891,2.082l-1.3594,-1.5781c-0.02734,-0.02734 -2.9297,-3.2539 -6.6406,-3.0625c-0.67188,0.0625 -1.3711,0.32422 -1.4609,0.48828c0.00391,0 0.07813,0.34766 1.0547,1.043l0.92969,0.66016l-1.0117,0.53125c-0.48828,0.25391 -1.1875,0.82422 -1.1758,1.1875c0.00391,0.20312 0.30078,0.54297 1.1133,0.90625c3.2422,1.457 5.543,1.1016 5.6211,1.1016l0.21094,1.3828c-1.5391,0.24609 -5.7852,1.1875 -6.8672,2.5352c-0.33984,0.42188 -0.64844,1.0859 -0.54688,1.3086c0.04297,0.09375 0.33594,0.26172 1.1211,0.26172c0.46094,0 1.0312,-0.05468 1.6914,-0.17187l1.8359,-0.32422l-1.1758,1.457c-0.21094,0.26953 -0.75781,1.1094 -0.67188,1.8047c0.03907,0.29687 0.17969,0.53125 0.44922,0.73828c0.19531,0.15234 0.41406,0.22266 0.66016,0.22266c1.2109,0 3.2148,-1.7461 4.9727,-5.6523l1.2812,0.57812c-1.6289,3.6172 -1.6172,6.0664 -1.0625,7.1445c0.22266,0.42969 0.53125,0.67578 0.95312,0.76172c1.4492,0.32031 1.8086,-1.793 1.8086,-1.8086l0.28131,-1.80086z"/>
  <path fill="#e5e5e5" id="svg_43" d="m370.67,170.58014s-1.1797,-2.0781 -0.05469,-3.3828c1.1367,-1.3008 5.0117,1.3047 6.6523,4.0586c0,0 0.49219,-4.4922 4.0156,-6.3516c0,0 3.6055,-1.8086 2.1836,1.8984c0,0 3.8242,-0.26953 1.8945,2.7422c-1.9219,2.9961 -4.2383,3.9883 -4.2383,3.9883s5.2422,-2.1719 7.4805,-1.4062c0,0 4.3281,1.457 -0.97266,3.5547c0,0 2.7031,0.90625 2.0664,2.832c-0.64453,1.9375 -4.1758,1.5625 -8.6133,-1.2812c4.4336,2.8438 6.293,5.8242 4.8711,7.1172s-3.3984,-0.74609 -3.3984,-0.74609c0.46094,5.4609 -2.7109,2.1953 -2.7109,2.1953c-1.6445,-1.6914 -2.0117,-7.125 -2.0117,-7.125s0.13281,2.4141 -1.6758,5.2422c-1.8125,2.832 -3.2383,-0.64453 -3.2383,-0.64453c-2.6602,2.6602 -2.6328,-1.1914 -2.6328,-1.1914c0.11328,-3.8125 3.8516,-5.9414 3.8516,-5.9414c-3.1484,-0.40234 -7.0547,-2.9531 -6.4023,-4.4414c0.66016,-1.4844 2.9336,-1.1172 2.9336,-1.1172l-0.00005,-0.00008z"/>
  <path id="svg_46" d="m456.51,113.48014c-0.46875,0 -0.89062,-0.18359 -1.2148,-0.52734c-0.48047,-0.50781 -0.74609,-1.3438 -0.80469,-2.5859c-1.0547,0.64453 -2.6875,0.87891 -3.7695,-0.13281c-0.59766,-0.56641 -0.87891,-1.3203 -0.80078,-2.1953c0.10156,-1.082 0.75781,-2.3203 1.8711,-3.5898c-0.99219,0.30859 -1.8945,0.46875 -2.6758,0.46875c-2.0664,0 -2.7148,-1.1016 -2.9219,-1.7578c-0.47656,-1.5 0.42969,-2.6562 1.4727,-3.375c-1.0625,-0.53125 -2,-1.2617 -2,-2.2695c0.00391,-1.4688 2.0234,-2.2578 2.4297,-2.3984c1.2148,-0.4375 3.2773,-0.24219 5.1133,0.16797c-0.55859,-0.58203 -1.125,-1.2773 -1.6641,-2.1172c-0.72266,-1.125 -0.875,-2.0898 -0.46094,-2.8555c0.47656,-0.875 1.5469,-1.1797 2.3867,-1.2812c-0.19141,-0.85547 -0.11719,-1.5117 0.20703,-1.9883c0.22266,-0.32031 0.67188,-0.69922 1.5352,-0.69922c0.93359,0 1.9336,0.44922 2.0391,0.5c2.832,1.3984 4.0039,4.1367 4.4805,5.8984c1.8828,-2.1914 4.7148,-4 6.4922,-4c0.78906,0 1.2422,0.32422 1.4844,0.59766c0.97266,1.1094 0.71094,2.5039 0.34766,3.4492c1.0469,0.12891 2.4922,0.56641 3.125,1.9531c0.17969,0.40234 0.29688,1.0625 -0.18359,1.8984c-0.89062,1.5586 -3.6055,3.1602 -6.3047,3.8516c1.457,1.2383 3.5781,3.5898 3.7539,6.8828c0.01172,0.33984 0.01563,2.0039 -0.78516,2.832c-0.66016,0.68359 -1.6641,0.63672 -2.7891,-0.26172c-0.4375,0.72656 -1.1914,1.6289 -2.25,1.6289c-0.84375,0 -1.6445,-0.57812 -2.3789,-1.7188c-0.57812,-0.90234 -1.0078,-1.7695 -1.3203,-2.5664c-0.34766,1.8477 -0.92578,3.8203 -1.8984,4.8438c-0.14844,0.13672 -1.3242,1.3477 -2.5156,1.3477l-0.00023,-0.00009zm-0.5,-6.4453l-0.10547,1.9102c-0.125,2.2305 0.24219,2.8711 0.40234,3.0469c0.35156,0.35938 1.2656,-0.37891 1.6797,-0.82422c1.4102,-1.4844 1.9141,-6.3789 1.9883,-8.1367l1.3984,0.05078c0,0.02735 -0.04297,2.7773 2.0273,6.0156c0.4375,0.68359 0.875,1.0703 1.1992,1.0703c0.51953,0 1.1328,-0.96875 1.3828,-1.625l0.39062,-1.0195l0.76563,0.77734c0.89453,0.92578 1.3164,0.96875 1.3945,0.96875c0.38672,-0.34766 0.50391,-1.3008 0.48828,-1.8477c-0.22266,-4.1836 -4.3672,-6.707 -4.4141,-6.7383l-1.7852,-1.0703l2.0703,-0.22266c2.9297,-0.32031 6.1055,-2.1211 6.8711,-3.4609c0.14453,-0.26172 0.19141,-0.46875 0.11719,-0.63281c-0.49219,-1.0938 -2.1523,-1.1758 -2.6484,-1.1758c-0.14453,0 -0.24219,0.00391 -0.25781,0.00391l-1.4336,0.11719l0.80078,-1.1992c0.01172,-0.01563 1.1758,-1.8047 0.30859,-2.793c-0.07812,-0.08594 -0.22266,-0.12891 -0.4375,-0.12891c-1.5117,0 -4.7109,2.1523 -6.2891,4.6602l-1.1094,1.7656l-0.17969,-2.0781c0,-0.04297 -0.4375,-4.6328 -4,-6.3828c-0.20703,-0.09375 -0.90234,-0.36328 -1.4336,-0.36328c-0.07813,0 -0.32031,0.0039 -0.38672,0.10156c-0.02344,0.03515 -0.21875,0.375 0.23047,1.6016l0.35937,0.98047l-1.0469,-0.03906c-0.88672,-0.02344 -1.832,0.18359 -2.0547,0.60547c-0.14453,0.26953 0,0.79688 0.41016,1.4297c1.9375,3.0312 4.3633,4.0195 4.3867,4.0312l-0.50391,1.3047c-0.03906,-0.01172 -4.0039,-1.4961 -6.707,-1.4961c-0.54688,0 -0.99609,0.0625 -1.332,0.17969c-0.69531,0.24609 -1.5,0.77344 -1.5,1.082c0,0.22266 0.51953,0.82812 2.4805,1.5352l1.8359,0.66797l-1.8359,0.65625c-0.02734,0.01171 -2.4805,0.90234 -2.0156,2.3672c0.16406,0.51953 0.69922,0.78516 1.5898,0.78516c1.7695,0 4.4258,-1.0547 7.2812,-2.8789l0.75781,1.1797c-4.1172,2.6367 -5.7188,5.0664 -5.8359,6.3438c-0.04297,0.4375 0.07813,0.77734 0.35156,1.0469c0.99609,0.91797 2.6133,-0.33984 3.0234,-0.77734l1.3206,-1.39476z"/>
  <path id="svg_48" d="m437.77,82.47014c-1.5781,0 -2.543,-2.1953 -2.7227,-2.6367c-0.63281,-1.5664 -0.40234,-4.0664 -0.00391,-6.2148c-0.67188,0.73828 -1.5195,1.5117 -2.5703,2.2461c-0.81641,0.56641 -1.5273,0.83984 -2.1953,0.83984c-1.625,0 -2.3008,-1.5859 -2.5078,-2.9609c-1.5898,0.44922 -2.4688,-0.11328 -2.793,-0.59766c-0.78906,-1.1641 -0.05468,-3.1133 0.10547,-3.4961c1.4766,-3.3867 4.6719,-4.8047 6.6367,-5.3711c-2.5352,-1.9805 -4.7773,-5.0664 -5.0234,-7.1328c-0.11719,-1.0078 0.23437,-1.5898 0.55859,-1.9023c0.57031,-0.54688 1.2891,-0.82422 2.1445,-0.82422c0.65625,0 1.293,0.17188 1.8086,0.36328c0.06641,-1.1875 0.45312,-2.9219 2.0234,-3.7031c0.26953,-0.12891 0.55859,-0.19531 0.86328,-0.19531c2.2578,0 4.9102,3.9023 5.9805,7.5977c1.2812,-1.7031 3.8867,-4.3516 7.7344,-4.6719c0.01563,0 0.14453,-0.01172 0.35938,-0.01172c1.2227,0 2.7773,0.23437 3.2656,1.3711c0.32031,0.72266 0.10156,1.5742 -0.66797,2.5859c0.8125,0.42578 1.8711,1.1914 2.0234,2.3203c0.13281,1.0039 -0.46094,1.9805 -1.7812,2.9023c-1.125,0.78516 -2.2109,1.3477 -3.1914,1.7539c2.2227,0.3125 4.7031,0.91406 5.9883,2.0508c0.21094,0.19141 2.1055,1.9219 1.5195,3.4727c-0.35938,0.95312 -1.4883,1.4883 -3.4258,1.6172c0.84375,1.2266 1.3984,2.918 0.15234,4.375c-1.3711,1.625 -4.0312,1.1211 -6.8281,-1.2773c0.78906,2.0391 1.0195,3.7734 0.62109,5c-0.27344,0.83984 -0.82812,1.4336 -1.6133,1.7148c-0.32422,0.11719 -0.64453,0.16797 -0.96875,0.16797c-1.3398,0 -2.3359,-0.97266 -2.9609,-1.8633c-0.55469,1.293 -1.3477,2.4805 -2.5312,2.4805l-0.00002,-0.00018zm-1.6836,-13.004l1.3281,0.44141c-0.59766,1.8594 -1.9648,7.168 -1.0586,9.4023c0.33594,0.83594 1.0039,1.7578 1.418,1.7578c0.08594,0 0.81641,-0.08594 1.7188,-2.9805l0.58203,-1.8828l0.73828,1.8242c0.30859,0.76562 1.5,2.8438 2.957,2.3242c0.36328,-0.12891 0.60547,-0.39062 0.74609,-0.82422c0.4375,-1.3711 -0.23438,-4.6758 -3.5898,-9.4922l1.1484,-0.80078c3.375,4.8477 6.3164,6.5703 7.8047,6.5703c0.46875,0 0.82812,-0.15625 1.1094,-0.48047c1.2891,-1.5117 -1.0547,-3.5898 -1.0742,-3.6133l-1.4609,-1.2773l2.4375,0.05469c2.7109,0 3.0859,-0.62109 3.1289,-0.74609c0.16797,-0.44922 -0.56641,-1.4219 -1.1367,-1.9258c-1.8047,-1.6016 -7.4648,-2.0156 -9.4961,-2.043l0.01172,-1.3984c0.03516,0 3.2031,-0.03906 6.8281,-2.5586c0.82812,-0.58203 1.2539,-1.1367 1.1914,-1.5625c-0.10156,-0.71094 -1.3906,-1.3828 -2,-1.5898l-1.0195,-0.35156l0.73828,-0.78906c1.2109,-1.2891 1.0547,-1.7578 1.0352,-1.8086c-0.11719,-0.26172 -0.82812,-0.52734 -1.9805,-0.52734l-0.25781,0.0039c-4.8086,0.39844 -7.5156,5.3047 -7.543,5.3555l-0.99219,1.8242l-0.32031,-2.0508c-0.59375,-3.8125 -3.4727,-8.0586 -4.9727,-8.0586c-0.09375,0 -0.16797,0.01563 -0.24219,0.05469c-1.5586,0.76562 -1.2383,3.4492 -1.2305,3.4766l0.18359,1.4609l-1.2539,-0.77734c-0.01172,-0.0039 -1.0977,-0.67578 -2.1602,-0.67578c-0.48828,0 -0.86719,0.14062 -1.1719,0.42969c-0.16797,0.16406 -0.16797,0.48047 -0.14062,0.72656c0.21875,1.7969 2.8164,5.3359 5.7227,7.0391l1.7969,1.0547l-2.0703,0.24219c-0.05469,0.00391 -5.3203,0.67188 -7.1641,4.8828c-0.25391,0.62109 -0.50391,1.7578 -0.23047,2.1719c0.05469,0.07422 0.08984,0.54688 1.9922,-0.22266l0.95312,-0.38672l0.01172,1.0312c0,0.02344 0.07422,2.5273 1.1875,2.5273c0.24609,0 0.69531,-0.10156 1.3945,-0.58984c3.375,-2.3516 4.3906,-5.2148 4.4023,-5.2422l0.00006,0.00013z"/>
  <path fill="#a79a88" id="svg_49" d="m231.41,83.30014s0.20312,-0.82422 0.54688,-2.2734c0.38672,-1.457 1.0352,-3.5547 1.7578,-6.0547c0.75,-2.4922 1.9727,-5.2695 3.0898,-8.293c1.0469,-3.0508 3.0391,-5.9805 4.5625,-9.0547c1.5977,-2.9805 3.1875,-5.957 4.6875,-8.7539c0.8125,-1.3906 1.4609,-2.7656 1.832,-4.1445c0.46094,-1.3594 0.89453,-2.6562 1.3008,-3.8398c0.86328,-2.3789 1.0117,-4.5234 1.3828,-5.957c0.23047,-1.4609 0.27344,-2.3203 0.27344,-2.3203s0.02344,0.85156 -0.09375,2.3359c-0.26172,1.457 -0.24219,3.6289 -0.92969,6.1094c-0.32422,1.25 -0.66797,2.6055 -1.0352,4.0391c-0.29688,1.4844 -0.84375,2.9297 -1.5391,4.3555c-1.2812,2.9297 -2.6641,6.0586 -4.0391,9.1836c-1.25,3.1133 -2.9336,5.9961 -3.7227,9.0625c-0.85547,3.0195 -1.832,5.7852 -2.3594,8.2148c-0.50781,2.4453 -0.96875,4.4414 -1.2383,5.8867c-0.23438,1.4688 -0.37109,2.3086 -0.37109,2.3086l-4.10519,-0.8048z"/>
  <path fill="#a79a88" id="svg_50" d="m122.25,142.28014s4.6367,0.50781 11.504,1.6562c3.4336,0.58203 7.4375,1.3086 11.691,2.3398c2.1211,0.53125 4.3164,1.0977 6.5195,1.8633c2.1992,0.74609 4.4414,1.5898 6.5117,3.1914c1.7852,1.3984 3.5625,2.9844 5.5039,3.8906c1.8555,1.1016 3.8711,2.0508 5.8281,2.9531c3.8984,1.8047 7.6367,3.3086 10.859,4.5547c6.4414,2.4883 10.82,3.9531 10.82,3.9531s-4.4453,-1.2148 -11.039,-3.3359c-3.293,-1.0586 -7.125,-2.3477 -11.168,-3.9492c-2.0156,-0.80078 -4.0977,-1.6172 -6.2148,-2.7266c-2.2305,-0.94531 -3.9922,-2.3672 -5.9062,-3.7031c-1.6367,-1.125 -3.8203,-1.8867 -5.9375,-2.4531c-2.1211,-0.60547 -4.2891,-1.043 -6.3789,-1.4336c-4.1992,-0.76562 -8.1719,-1.2656 -11.574,-1.6406c-6.832,-0.75 -11.387,-0.98047 -11.387,-0.98047l0.3682,-4.17963z"/>
  <path fill="#e5e5e5" id="svg_51" d="m217.41,167.15014s2.2383,1.6758 1.7148,3.7578c-0.53906,2.1055 -5.8125,1.3594 -8.8633,-0.80469c0,0 1.6953,5.3125 -1.0234,9.3867c0,0 -2.832,4.0586 -3.1914,-0.90234c0,0 -3.8125,2.4531 -3.3047,-2.0039c0.50781,-4.4414 2.418,-6.8594 2.418,-6.8594s-4.3438,5.3828 -7.0352,5.7969c0,0 -5.1875,0.80469 -0.75,-4.543c0,0 -3.2383,0.51562 -3.5234,-2.0156c-0.28516,-2.5273 3.543,-4.0977 9.5312,-3.4141c-5.9805,-0.68359 -9.3672,-2.9727 -8.5352,-5.2305c0.83594,-2.2578 3.875,-1.082 3.875,-1.082c-3.1523,-5.8633 1.7305,-3.9922 1.7305,-3.9922c2.5312,0.96875 5.5898,6.8594 5.5898,6.8594s-1.3281,-2.625 -0.85156,-6.8164c0.48047,-4.207 3.6641,-1.1016 3.6641,-1.1016c1.4375,-4.4727 3.3086,-0.14062 3.3086,-0.14062c1.7539,4.3281 -1.0586,8.832 -1.0586,8.832c3.4453,-1.3164 8.7344,-0.66016 8.793,1.3711c0.04297,2.0352 -2.4883,2.9023 -2.4883,2.9023l0.00006,0.00015z"/>
  <path id="svg_54" d="m152.65,180.21014c-0.46484,0 -0.875,-0.17969 -1.1992,-0.51562c-0.48828,-0.50391 -0.76562,-1.332 -0.85156,-2.5742c-1.0352,0.65625 -2.6445,0.90625 -3.7461,-0.08984c-0.61719,-0.56641 -0.90625,-1.3281 -0.83984,-2.2109c0.08594,-1.0742 0.69922,-2.3008 1.7695,-3.5781c-1.0039,0.33203 -1.9141,0.5 -2.7109,0.50391c-2,0 -2.6641,-1.0742 -2.8789,-1.7266c-0.50391,-1.4883 0.37109,-2.6484 1.3828,-3.3828c-1.0742,-0.51563 -2.0312,-1.2383 -2.043,-2.25c-0.01172,-1.4609 1.9609,-2.2617 2.3516,-2.4141c1.1875,-0.42969 3.207,-0.28125 5.0391,0.10547c-0.55859,-0.56641 -1.1367,-1.25 -1.6797,-2.0664c-0.75,-1.125 -0.92578,-2.0938 -0.50781,-2.8711c0.46484,-0.85547 1.4883,-1.1758 2.3125,-1.2812c-0.21094,-0.85547 -0.15234,-1.5195 0.17187,-1.9922c0.22266,-0.32422 0.66797,-0.71094 1.5391,-0.71094c0.91797,0 1.8945,0.42578 2,0.47656c2.8398,1.3672 4.0703,4.082 4.5859,5.8281c1.8242,-2.2188 4.5977,-4.0586 6.3633,-4.0586c0.76172,0 1.2109,0.32031 1.4492,0.58203c0.99609,1.0938 0.76563,2.4922 0.42188,3.4375c1.0234,0.11719 2.4805,0.52734 3.1406,1.9102c0.19141,0.40234 0.32422,1.0625 -0.14453,1.9219c-0.85547,1.5508 -3.4961,3.168 -6.1328,3.8906c1.4688,1.2148 3.6172,3.5273 3.875,6.8164c0.01563,0.34766 0.06641,2.0117 -0.71875,2.8438c-0.65625,0.68359 -1.6406,0.64453 -2.7656,-0.23047c-0.42188,0.73828 -1.1523,1.6406 -2.2188,1.6406c-0.83594,0 -1.6367,-0.56641 -2.3789,-1.6797c-0.58984,-0.88672 -1.0352,-1.7422 -1.3672,-2.5195c-0.29688,1.8359 -0.81641,3.793 -1.7539,4.8203c-0.20312,0.22656 -1.3008,1.3711 -2.4648,1.375l-0.00006,-0.0001zm-0.61719,-6.418l-0.05469,1.8945c-0.0664,2.2227 0.3125,2.8672 0.47656,3.0391c0.06641,0.07422 0.125,0.08984 0.19531,0.08984c0.41016,0 1.0977,-0.54688 1.4336,-0.91797c1.3594,-1.5 1.7422,-6.3789 1.7695,-8.1328l1.3984,0.01172c0,0.02735 0.02735,2.7773 2.1562,5.9805c0.44922,0.67188 0.89063,1.0547 1.2148,1.0547c0.52734,0 1.1211,-1.0547 1.3203,-1.625l0.37109,-1.043l0.78516,0.77734c0.91406,0.90625 1.332,0.95312 1.4062,0.95312c0.35156,-0.32422 0.45312,-1.2617 0.42188,-1.8242c-0.32422,-4.1836 -4.4961,-6.6523 -4.5352,-6.668l-1.8125,-1.0547l2.0781,-0.25391c2.8711,-0.34766 5.957,-2.1719 6.6992,-3.5039c0.14453,-0.26953 0.18359,-0.48047 0.11328,-0.63672c-0.64453,-1.3398 -2.8398,-1.1484 -2.9062,-1.1406l-1.418,0.12891l0.76172,-1.2031c0.01172,-0.01562 1.1328,-1.8047 0.23438,-2.7891c-0.07812,-0.08594 -0.21875,-0.125 -0.42188,-0.125c-1.457,0 -4.625,2.2188 -6.1094,4.7109l-1.0625,1.793l-0.23438,-2.0703c-0.0039,-0.04297 -0.55859,-4.6133 -4.1328,-6.332c-0.20312,-0.08984 -0.88672,-0.34766 -1.4062,-0.34766c-0.19531,0 -0.34766,0.03906 -0.38672,0.10156c-0.02343,0.03906 -0.21094,0.37109 0.26172,1.5898l0.38672,0.98438l-1.0586,-0.02734c-0.85547,0 -1.7812,0.20703 -1.9922,0.60547c-0.14453,0.27344 0.01172,0.79688 0.4375,1.4336c1.9922,2.9961 4.4258,3.9531 4.4453,3.9609l-0.48828,1.3086c-0.03906,-0.01172 -3.9219,-1.4102 -6.6016,-1.4102c-0.57812,0 -1.0469,0.0664 -1.3945,0.19141c-0.67188,0.25391 -1.4453,0.78516 -1.4375,1.082c0,0.22266 0.53125,0.82422 2.5078,1.5195l1.832,0.63672l-1.8125,0.67578c-0.02343,0.01172 -2.4297,0.92969 -1.9375,2.375c0.17188,0.50781 0.69922,0.77344 1.5586,0.77344c1.7539,-0.00391 4.3672,-1.0742 7.1797,-2.9531l0.77734,1.1719c-3.9922,2.6602 -5.5234,5.0859 -5.6172,6.3633c-0.03515,0.44922 0.09375,0.80078 0.38672,1.0625c0.96484,0.89453 2.5664,-0.35938 2.9609,-0.80469l1.25037,-1.4062z"/>
  <path fill="#e5e5e5" id="svg_55" d="m189,147.93014s1.8086,-0.12891 2.4062,1.0977c0.59766,1.2422 -2.3516,3.1094 -4.7695,3.3438c0,0 3.0352,1.8594 3.3555,4.9766c0,0 0.25391,3.1602 -1.9727,0.90625c0,0 -0.89453,2.7891 -2.4805,0.41406c-1.5742,-2.3633 -1.6133,-4.3398 -1.6133,-4.3398s0.03906,4.4414 -1.1406,5.7695c0,0 -2.2695,2.5742 -2.2461,-1.8828c0,0 -1.4102,1.6133 -2.5977,0.50781c-1.1797,-1.1016 0.08594,-3.4766 3.3672,-5.668c-3.2812,2.1914 -5.9258,2.4922 -6.4336,1.0586c-0.50781,-1.4492 1.5,-2.1562 1.5,-2.1562c-4.0039,-1.5195 -0.78516,-2.6719 -0.78516,-2.6719c1.6641,-0.58984 5.6211,0.97266 5.6211,0.97266s-1.7461,-0.71094 -3.2305,-2.9414c-1.4961,-2.2383 1.3789,-2.0781 1.3789,-2.0781c-1.125,-2.7656 1.6016,-1.457 1.6016,-1.457c2.6641,1.3555 3.1094,4.7266 3.1094,4.7266c1.1797,-2.0938 4.0977,-4.0039 4.9727,-3.0391c0.86328,0.97266 -0.04297,2.4609 -0.04297,2.4609l0.00003,-0.00018z"/>
  <path id="svg_58" d="m181.52,187.48014c-0.37109,0 -0.69922,-0.13281 -0.96875,-0.40234c-0.33203,-0.33594 -0.54297,-0.83984 -0.64844,-1.5781c-0.72266,0.35938 -1.7539,0.33594 -2.4531,-0.3125c-0.48047,-0.44922 -0.70703,-1.0547 -0.64844,-1.7461c0.05078,-0.60938 0.3125,-1.2656 0.77344,-1.9375c-1.6875,0.37891 -2.9727,-0.08594 -3.3711,-1.2031c-0.18359,-0.52734 -0.16406,-1.0547 0.06641,-1.5273c0.14453,-0.3125 0.36328,-0.57031 0.59766,-0.77734c-0.67187,-0.39062 -1.2266,-0.92578 -1.2148,-1.6367c0.01171,-1.1211 1.4102,-1.6758 1.6914,-1.7734c0.68359,-0.23047 1.6875,-0.19141 2.7266,-0.00391c-0.23047,-0.27344 -0.46094,-0.58203 -0.68359,-0.91406c-0.57031,-0.85547 -0.69922,-1.5977 -0.375,-2.1953c0.29688,-0.55469 0.86719,-0.80078 1.4102,-0.90234c-0.08594,-0.44141 -0.07422,-0.90234 0.18359,-1.2812c0.14062,-0.20703 0.47656,-0.55859 1.1641,-0.55859c0.67188,0 1.3984,0.34766 1.4844,0.37891c1.7695,0.89453 2.6641,2.5352 3.1016,3.7539c1.1914,-1.3555 2.8555,-2.3984 4.0156,-2.3984c0.60938,0 0.98047,0.26172 1.1797,0.48828c0.62891,0.69531 0.63672,1.5742 0.44922,2.3008c0.69922,0.14062 1.5859,0.50391 2.0273,1.4102c0.23047,0.47656 0.19141,1.0312 -0.10547,1.5586c-0.55859,0.99219 -2.0703,1.9648 -3.6836,2.4648c0.98438,0.91797 2.2344,2.4648 2.4414,4.5312c0.02734,0.35156 0.07422,1.4883 -0.49219,2.1016c-0.45312,0.49219 -1.1758,0.53125 -1.9492,0c-0.3125,0.46875 -0.79688,0.95312 -1.4844,0.95312c-0.64844,0 -1.2422,-0.41406 -1.8125,-1.2695c-0.24219,-0.36328 -0.45312,-0.72656 -0.63281,-1.0703c-0.19531,1.0234 -0.50391,2 -1.0117,2.5742c-0.14062,0.16016 -0.90234,0.97266 -1.7773,0.97266l-0.00023,-0.00029zm-0.28516,-5.1719l-0.00391,1.8555c-0.0039,1.4766 0.24609,1.8477 0.30859,1.9141c0.15234,-0.01563 0.49219,-0.25781 0.71094,-0.50391c0.72656,-0.81641 0.98047,-3.6836 0.96484,-5.2969l1.3984,-0.02344c0,0.01563 0.06641,1.8242 1.4961,3.9688c0.35156,0.52734 0.58984,0.64453 0.64844,0.64453c0.11328,0 0.42969,-0.41406 0.58984,-0.89062l0.35156,-1.0859l0.80469,0.81641c0.55859,0.57031 0.80078,0.59766 0.80078,0.59766c-0.05468,-0.05468 0.00391,-0.56641 -0.02343,-0.96484c-0.27344,-2.7031 -2.9961,-4.418 -3.0234,-4.4336l-1.7656,-1.0938l2.0664,-0.19531c1.7695,-0.17188 3.6797,-1.2656 4.1445,-2.082c0.02343,-0.04297 0.10156,-0.19141 0.0664,-0.25781c-0.32031,-0.65625 -1.3203,-0.71094 -1.625,-0.71094l-1.2383,0l0.48828,-1.0547c0.00391,-0.01172 0.61719,-1.0703 0.125,-1.6172l-0.02734,0c-1.0547,0 -2.9453,1.3711 -3.8203,2.918l-1.0234,1.8086l-0.28125,-2.0625c0,-0.03515 -0.4375,-3.0234 -2.7344,-4.1953c-0.17969,-0.08984 -0.59375,-0.23438 -0.86328,-0.23438c0,0.06641 0.02734,0.32031 0.22266,0.80469l0.41406,1.0195l-1.0977,-0.05468l-0.01172,0c-0.67578,0 -1.0117,0.15233 -1.0547,0.23047c-0.01562,0.03906 -0.02344,0.26953 0.30859,0.76172c1.332,2 2.9023,2.6758 2.918,2.6836l-0.52734,1.293c-0.02734,-0.01172 -2.6992,-1.0547 -4.4297,-1.0547c-0.36328,0 -0.58984,0.05078 -0.70703,0.09375c-0.32422,0.11719 -0.70703,0.35938 -0.76172,0.49219c0.02344,0 0.23047,0.35156 1.5586,0.85547l1.7695,0.67188l-1.7852,0.64453c-0.01172,0.0039 -1.3477,0.49219 -1.0742,1.2617c0.10156,0.27344 0.40234,0.41016 0.91406,0.41016c1.1094,0 2.7383,-0.66016 4.4727,-1.8203l0.77734,1.1719c-2.4688,1.6406 -3.4219,3.1602 -3.4883,3.9609c-0.02734,0.34766 0.10547,0.51562 0.21094,0.60547c0.19141,0.17969 0.34766,0.20312 0.44922,0.20312c0.46094,0 0.99609,-0.48828 1.1484,-0.66016l1.23839,-1.39466z"/>
  <path id="svg_60" d="m249.5,32.11014c-0.42578,0 -0.81641,-0.16406 -1.1211,-0.47656c-0.42969,-0.44141 -0.68359,-1.1602 -0.77734,-2.2188c-0.94141,0.55469 -2.3398,0.69922 -3.3047,-0.17188c-0.57031,-0.51953 -0.83594,-1.2305 -0.77734,-2.043c0.07422,-0.90625 0.56641,-1.9375 1.4102,-2.9961c-0.78906,0.23438 -1.5117,0.35938 -2.1523,0.35938c-1.8359,0 -2.4531,-0.99609 -2.6562,-1.5898c-0.45312,-1.3164 0.25781,-2.3398 1.125,-3.0117c-0.93359,-0.46875 -1.7461,-1.125 -1.7539,-2.0312c-0.00391,-1.3438 1.7695,-2.0625 2.1289,-2.1953c0.99609,-0.36328 2.6719,-0.26172 4.2344,0.05469c-0.44141,-0.46484 -0.89453,-1.0234 -1.3203,-1.668c-0.6875,-1.0352 -0.83984,-1.9219 -0.46094,-2.6367c0.40234,-0.75 1.2773,-1.0469 2,-1.1602c-0.17188,-0.74609 -0.11719,-1.3164 0.17188,-1.7461c0.20703,-0.30078 0.61719,-0.66016 1.418,-0.66016c0.82812,0 1.7266,0.39844 1.8203,0.44141c2.457,1.1992 3.5859,3.5273 4.0781,5.0977c1.6133,-1.9375 3.9805,-3.4727 5.5625,-3.4727c0.70703,0 1.125,0.29688 1.3555,0.54297c0.87891,0.96875 0.72266,2.1914 0.42969,3.0391c0.92578,0.125 2.1719,0.51953 2.75,1.7422c0.18359,0.38672 0.30859,1.0039 -0.12891,1.793c-0.75781,1.3555 -3.0078,2.7539 -5.2969,3.4062c1.3047,1.1211 3.1406,3.168 3.3828,6.0195c0.01563,0.3125 0.07422,1.832 -0.64453,2.5859c-0.58203,0.62109 -1.4727,0.61719 -2.4766,-0.14062c-0.38672,0.64844 -1.0352,1.3984 -1.9648,1.3984c-0.77344,0 -1.5078,-0.51953 -2.1914,-1.5391c-0.46484,-0.69922 -0.82812,-1.3789 -1.1133,-2.0117c-0.26172,1.5625 -0.71875,3.168 -1.5078,4.043c-0.17188,0.21484 -1.1523,1.2461 -2.2188,1.2461l-0.00011,0.00007zm-0.48828,-6.0039l-0.05078,1.8984c-0.05078,2.0117 0.30859,2.5352 0.42188,2.6562l0.11719,0.05078c0.32031,0 0.90625,-0.46094 1.1914,-0.77344c1.1758,-1.3047 1.4766,-5.6055 1.4961,-7.1562l1.3984,0.00391c0,0.02344 0.04297,2.4453 1.9375,5.2734c0.56641,0.85156 0.91797,0.91797 1.0195,0.91797c0.375,0 0.86719,-0.8125 1.0625,-1.3711l0.36328,-1.0547l0.78906,0.78516c0.8125,0.80469 1.1523,0.82422 1.1914,0.82422c0.15625,-0.10156 0.32031,-0.82812 0.27344,-1.5352c-0.30859,-3.668 -3.9688,-5.8633 -4.0078,-5.8867l-1.793,-1.0586l2.0664,-0.24219c2.4961,-0.29297 5.1875,-1.8633 5.8281,-3.0195c0.11719,-0.21875 0.15234,-0.39062 0.09375,-0.51562c-0.53906,-1.125 -2.4141,-0.98047 -2.4922,-0.98438l-1.3945,0.11719l0.74609,-1.1875c0.0039,-0.01563 0.95312,-1.5469 0.19141,-2.3789c-0.05469,-0.05469 -0.16406,-0.08985 -0.32422,-0.08985c-1.2695,0 -4.0156,1.9336 -5.293,4.0977l-1.0547,1.7969l-0.24219,-2.0703c-0.00391,-0.03906 -0.51562,-4.0586 -3.6406,-5.582c-0.17188,-0.07812 -0.77734,-0.30859 -1.2266,-0.30859c-0.19531,0 -0.25781,0.04297 -0.25781,0.04297s-0.16797,0.27344 0.25391,1.3398l0.39062,0.99219l-1.0625,-0.03515l-0.00391,0c-0.82812,0 -1.5273,0.20703 -1.6797,0.48047c-0.11328,0.21094 0.03516,0.66016 0.39062,1.1992c1.7656,2.6484 3.8984,3.5117 3.9219,3.5156l-0.5,1.3086c-0.03516,-0.01172 -3.4883,-1.2891 -5.8477,-1.2891c-0.48828,0 -0.87891,0.05468 -1.1719,0.16406c-0.58984,0.21875 -1.2109,0.66797 -1.2109,0.875c0,0.0039 0.0625,0.54297 2.1836,1.293l1.8203,0.64453l-1.8125,0.67188c-0.02344,0.0039 -2.0625,0.77734 -1.6406,1.9883c0.14453,0.42578 0.58984,0.64453 1.3281,0.64453c1.5273,0 3.8125,-0.93359 6.25,-2.5586l0.77734,1.1641c-3.4727,2.3125 -4.8047,4.4297 -4.8906,5.5391c-0.03515,0.38672 0.07422,0.67578 0.32031,0.90234c0.85547,0.77344 2.1914,-0.33984 2.5039,-0.6875l1.26971,-1.40238z"/>
  <path fill="#e5e5e5" id="svg_61" d="m239.55,36.43014s1.8047,-0.13281 2.4062,1.0977c0.59375,1.2422 -2.3516,3.1094 -4.7773,3.3438c0,0 3.0352,1.8594 3.3555,4.9727c0,0 0.25391,3.1602 -1.9727,0.90625c0,0 -0.89453,2.793 -2.4883,0.41406c-1.5742,-2.3633 -1.6133,-4.3359 -1.6133,-4.3359s0.03906,4.4336 -1.1406,5.7695c0,0 -2.2695,2.5742 -2.2461,-1.8828c0,0 -1.4102,1.6133 -2.5977,0.50781c-1.1797,-1.1016 0.08594,-3.4844 3.3672,-5.668c-3.2812,2.1836 -5.9258,2.4961 -6.4336,1.0586c-0.50781,-1.4453 1.5,-2.1562 1.5,-2.1562c-4.0039,-1.5195 -0.78516,-2.6641 -0.78516,-2.6641c1.6641,-0.59375 5.6211,0.96875 5.6211,0.96875s-1.7461,-0.71094 -3.2305,-2.9414c-1.4961,-2.2383 1.3789,-2.0781 1.3789,-2.0781c-1.125,-2.7734 1.6016,-1.4609 1.6016,-1.4609c2.6641,1.3594 3.1094,4.7266 3.1094,4.7266c1.1797,-2.0938 4.0977,-4 4.9766,-3.0352c0.875,0.97656 -0.03125,2.457 -0.03125,2.457l0.00001,-0.00017z"/>
  <path id="svg_66" d="m423.93,101.39014c-0.37109,0 -0.70703,-0.14062 -0.97266,-0.41016c-0.33203,-0.33203 -0.54297,-0.84375 -0.64453,-1.5781c-0.72266,0.35156 -1.7461,0.33984 -2.4531,-0.32031c-0.48047,-0.44922 -0.70703,-1.0547 -0.64844,-1.7461c0.05078,-0.60547 0.32031,-1.2617 0.77734,-1.9336c-1.7031,0.375 -2.9727,-0.08594 -3.3828,-1.2031c-0.35156,-0.99609 0.07812,-1.7734 0.67187,-2.3125c-0.67187,-0.39063 -1.2266,-0.91797 -1.2148,-1.6367c0.01172,-1.1211 1.4062,-1.6758 1.6875,-1.7695c0.67188,-0.24219 1.6797,-0.20703 2.7266,-0.01172c-0.23047,-0.27344 -0.46094,-0.57812 -0.67578,-0.91406c-0.57812,-0.85547 -0.69922,-1.5977 -0.375,-2.1953c0.29297,-0.54688 0.86719,-0.79688 1.4062,-0.90234c-0.08594,-0.44141 -0.07422,-0.90234 0.18359,-1.2812c0.14062,-0.20703 0.48047,-0.55859 1.1641,-0.55859c0.67578,0 1.4062,0.33984 1.4844,0.37891c1.7695,0.90234 2.6719,2.543 3.1094,3.7539c1.1992,-1.3555 2.8633,-2.3906 4.0156,-2.3906c0.60938,0 0.98047,0.26172 1.1797,0.48047c0.62891,0.69922 0.63672,1.5742 0.44922,2.3008c0.69922,0.14062 1.5859,0.5 2.0234,1.4102c0.16406,0.33594 0.27344,0.87891 -0.11328,1.5586c-0.55859,0.99219 -2.0703,1.9648 -3.6836,2.4648c0.99219,0.92578 2.2344,2.4648 2.4453,4.5312c0.02734,0.35156 0.07422,1.4883 -0.48828,2.1016c-0.46484,0.50391 -1.1797,0.53125 -1.9531,0c-0.3125,0.46875 -0.79688,0.95312 -1.4844,0.95312c-0.64844,0 -1.2422,-0.41406 -1.8086,-1.2695c-0.24609,-0.36328 -0.46094,-0.72266 -0.63672,-1.0703c-0.19141,1.0195 -0.50391,2.0039 -1.0078,2.5742c-0.14453,0.18359 -0.91016,0.99609 -1.7812,0.99609l-0.00013,-0.00021zm-0.28516,-5.1953l-0.01172,1.875c-0.00391,1.4766 0.25391,1.8555 0.3125,1.9141c0.16406,-0.01563 0.51953,-0.28125 0.71094,-0.5c0.72656,-0.82422 0.98047,-3.6914 0.96484,-5.3047l1.3984,-0.02344c0,0.01563 0.06641,1.832 1.5,3.9688c0.35156,0.52734 0.58984,0.64453 0.64453,0.64453c0.11328,0 0.42969,-0.41406 0.58203,-0.89062l0.35938,-1.0859l0.80469,0.8125c0.55859,0.56641 0.80078,0.59766 0.80078,0.59766c-0.05469,-0.05469 0.01172,-0.57812 -0.02344,-0.96484c-0.27344,-2.7227 -2.9961,-4.4141 -3.0234,-4.4336l-1.7812,-1.0859l2.0781,-0.20703c1.7695,-0.17188 3.6836,-1.2617 4.1445,-2.082c0.03516,-0.05468 0.10547,-0.19531 0.07422,-0.26172c-0.32031,-0.65625 -1.3203,-0.70703 -1.6172,-0.70703l-1.2422,0l0.48828,-1.0586c0.00391,-0.01172 0.61719,-1.0625 0.11719,-1.6172l-0.02734,0c-1.0469,0 -2.9414,1.3711 -3.8203,2.918l-1.0195,1.8047l-0.28516,-2.0547c-0.00391,-0.02734 -0.44141,-3.0234 -2.7344,-4.1953c-0.17969,-0.08593 -0.58984,-0.23438 -0.85547,-0.23438c0,0.06641 0.02344,0.32031 0.22266,0.8125l0.41016,1.0195l-1.0977,-0.05469l-0.01172,0c-0.67188,0 -1.0117,0.15234 -1.0547,0.23438c-0.01562,0.03516 -0.01562,0.26172 0.3125,0.75781c1.332,2 2.9023,2.6758 2.918,2.6836l-0.52734,1.293c-0.02734,-0.01171 -2.6953,-1.0547 -4.418,-1.0547c-0.37109,0 -0.59375,0.05079 -0.71875,0.09375c-0.32422,0.11719 -0.69922,0.36328 -0.76172,0.49219c0.02344,0 0.23047,0.35156 1.5586,0.85547l1.7695,0.67188l-1.7812,0.64453c-0.01563,0.00391 -1.3477,0.5 -1.0742,1.2656c0.09375,0.26953 0.39844,0.41016 0.90625,0.41016c1.1133,0 2.7422,-0.66016 4.4805,-1.8203l0.77734,1.1641c-2.4648,1.6445 -3.4219,3.1641 -3.4883,3.9648c-0.02734,0.34766 0.11328,0.50781 0.20703,0.60547c0.19141,0.17969 0.35156,0.19531 0.44922,0.19531c0.47656,0 1.0234,-0.51562 1.1484,-0.65625l1.23442,-1.40644z"/>
  <path stroke="#7f0000" fill="#BF7E96" id="svg_25" d="m359.27,18.05014s1.8086,0.07422 2.2617,1.3594c0.45312,1.3047 -2.6875,2.8242 -5.1172,2.7812c0,0 2.8125,2.1953 2.7734,5.3242c0,0 -0.11719,3.1602 -2.0664,0.67578c0,0 -1.2031,2.6758 -2.5078,0.13281c-1.3008,-2.5312 -1.1133,-4.4961 -1.1133,-4.4961s-0.46484,4.418 -1.7852,5.6016c0,0 -2.5352,2.3008 -2.0117,-2.1172c0,0 -1.5859,1.4336 -2.6445,0.20703c-1.0547,-1.2305 0.48047,-3.4453 3.9883,-5.2461c-3.5039,1.7969 -6.1641,1.8125 -6.5117,0.32031c-0.34766,-1.4883 1.7422,-1.9727 1.7422,-1.9727c-3.8086,-1.9609 -0.47656,-2.7266 -0.47656,-2.7266c1.7266,-0.40234 5.4805,1.5977 5.4805,1.5977s-1.6562,-0.90625 -2.8828,-3.2891c-1.2305,-2.3984 1.6055,-1.9023 1.6055,-1.9023c-0.8125,-2.8789 1.7539,-1.2695 1.7539,-1.2695c2.4922,1.6523 2.5547,5.0469 2.5547,5.0469c1.4102,-1.9414 4.5312,-3.5 5.2812,-2.4531c0.73828,1.0547 -0.32422,2.4258 -0.32422,2.4258l-0.00002,-0.00003z"/>
  <path stroke="#7f0000" fill="#BF7E96" id="svg_27" d="m384.28,194.98014s0.89063,-1.5781 2.2461,-1.3945c1.3672,0.19141 1.2812,3.6797 0.13281,5.8242c0,0 3.2305,-1.5 5.9961,-0.03516c0,0 2.7656,1.5391 -0.33984,2.1445c0,0 1.8242,2.2969 -1.0312,2.2969c-2.8438,0 -4.5078,-1.0586 -4.5078,-1.0586s3.7109,2.4297 4.168,4.1445c0,0 0.88672,3.3164 -2.8125,0.82422c0,0 0.55859,2.0664 -1.0195,2.4453c-1.5742,0.37109 -2.8516,-2 -2.8516,-5.9453c0,3.9414 -1.2031,6.3164 -2.6836,5.9453c-1.4883,-0.375 -0.96484,-2.4453 -0.96484,-2.4453c-3.4766,2.4883 -2.6484,-0.82422 -2.6484,-0.82422c0.42578,-1.7188 3.9258,-4.1445 3.9258,-4.1445s-1.5625,1.0586 -4.2461,1.0586c-2.6875,0 -0.96484,-2.2969 -0.96484,-2.2969c-2.9297,-0.59766 -0.33203,-2.1445 -0.33203,-2.1445c2.6094,-1.4688 5.6562,0.03516 5.6562,0.03516c-1.082,-2.1445 -1.0547,-5.6328 0.23047,-5.8242c1.3125,-0.1875 2.0469,1.3945 2.0469,1.3945l-0.00013,0z"/>
  <path stroke="#7f0000" fill="#BF7E96" id="svg_29" d="m127.79,48.19014s1.8086,-0.13281 2.4062,1.0977c0.59766,1.2422 -2.3516,3.1094 -4.7695,3.3438c0,0 3.0352,1.8594 3.3555,4.9727c0,0 0.25391,3.1602 -1.9727,0.90625c0,0 -0.89453,2.793 -2.4805,0.41406c-1.5742,-2.3633 -1.6133,-4.3359 -1.6133,-4.3359s0.03906,4.4336 -1.1406,5.7695c0,0 -2.2695,2.5742 -2.2461,-1.8828c0,0 -1.4102,1.6133 -2.5977,0.50781c-1.1797,-1.1016 0.08594,-3.4844 3.3672,-5.668c-3.2812,2.1836 -5.9258,2.4961 -6.4336,1.0586c-0.50781,-1.4453 1.5,-2.1562 1.5,-2.1562c-4.0039,-1.5195 -0.78516,-2.6641 -0.78516,-2.6641c1.6641,-0.59375 5.6211,0.96875 5.6211,0.96875s-1.7461,-0.71094 -3.2305,-2.9414c-1.4961,-2.2383 1.3789,-2.0781 1.3789,-2.0781c-1.125,-2.7734 1.6016,-1.4609 1.6016,-1.4609c2.6641,1.3594 3.1094,4.7266 3.1094,4.7266c1.1797,-2.0938 4.0977,-4 4.9727,-3.0352c0.87109,0.97266 -0.04297,2.457 -0.04297,2.457l0.00003,-0.00017z"/>
  <path stroke="#7f0000" fill="#BF7E96" id="svg_31" d="m474.74,72.57014s1.7812,0.33203 2.0508,1.668c0.26172,1.3555 -3.0703,2.4062 -5.4648,2.0273c0,0 2.4648,2.5664 1.9805,5.6602c0,0 -0.55859,3.1211 -2.1328,0.375c0,0 -1.5781,2.4766 -2.5078,-0.22266c-0.92578,-2.6875 -0.46484,-4.6016 -0.46484,-4.6016s-1.082,4.3008 -2.5586,5.2852c0,0 -2.8438,1.9141 -1.6953,-2.3906c0,0 -1.7695,1.1992 -2.6445,-0.16406c-0.86719,-1.3711 0.96484,-3.3477 4.6914,-4.6328c-3.7305,1.2812 -6.3672,0.91797 -6.4961,-0.60547c-0.125,-1.5273 1.9922,-1.707 1.9922,-1.707c-3.4844,-2.4805 -0.07812,-2.7734 -0.07812,-2.7734c1.7578,-0.15625 5.1953,2.3633 5.1953,2.3633s-1.5117,-1.1367 -2.3867,-3.668c-0.875,-2.5469 1.8594,-1.6562 1.8594,-1.6562c-0.37891,-2.9688 1.9219,-1.0078 1.9219,-1.0078c2.2344,1.9883 1.8086,5.3594 1.8086,5.3594c1.6758,-1.7266 4.9844,-2.8281 5.582,-1.6797c0.60547,1.1602 -0.65234,2.3711 -0.65234,2.3711l-0.0002,-0.00021z"/>
  <path fill="#BF7E96" id="svg_34" d="m91.89,65.39014c-1.2383,0 -2.0234,-0.83594 -2.4766,-1.7539c-0.80078,1.0234 -1.5273,1.5078 -2.2578,1.5078c-1.625,0 -2.0312,-2.3008 -2.0703,-2.5664c-0.19141,-1.1992 0.33203,-2.8633 0.98438,-4.3555c-0.60547,0.38672 -1.3086,0.77344 -2.1094,1.1133c-1.6641,0.71094 -2.7344,0.20703 -3.1211,-0.28516c-0.42969,-0.55469 -0.50391,-1.3281 -0.47656,-1.9414c-1.3906,0.08984 -1.8633,-0.42578 -2.082,-0.85156c-0.55469,-1.1016 0.51562,-2.6562 0.73828,-2.9531c1.8047,-2.3359 4.5234,-3.0586 6.2812,-3.2773c-1.5508,-1.8203 -2.6602,-4.3008 -2.5469,-5.9258c0.06641,-0.94531 0.51562,-1.418 0.88672,-1.6445c1.0352,-0.62891 2.4375,-0.33984 3.293,0.125c0.3125,-0.92578 0.98438,-2.168 2.3984,-2.5586c0.15625,-0.04297 0.32031,-0.0625 0.47656,-0.0625c0.42188,0 1.0625,0.15234 1.7344,0.89062c1.0938,1.1914 1.875,3.4648 2.0391,5.6445c1.4297,-1.1406 4.0039,-2.6719 7.0781,-2.4648c0.58984,0.0625 2.4922,0.34766 2.8047,1.5977c0.20312,0.79688 -0.36328,1.5117 -0.93359,2.0117c0.54297,0.45312 1.1328,1.1406 1.0938,1.9766c-0.03906,0.88672 -0.73828,1.6289 -2.0781,2.1992c-0.875,0.37109 -1.6914,0.63672 -2.4453,0.82422c1.6016,0.53125 3.2188,1.2773 3.9688,2.2344c0.21094,0.27344 1.2656,1.7031 0.69531,2.8711c-0.41016,0.83984 -1.418,1.1992 -3.1406,1.0547c0.17969,0.47656 0.29688,1.0469 0.22266,1.625c-0.08984,0.69531 -0.46094,1.293 -1.0625,1.7461c-1.4219,1.0547 -3.4336,0.39844 -5.2188,-1.668c0.16797,1.4727 0.02344,2.6992 -0.44922,3.5547c-0.39844,0.72266 -1.0195,1.1719 -1.7852,1.293c-0.14844,0.02734 -0.29297,0.03906 -0.44141,0.03906l-0.00003,-0.00018zm-1.8477,-5.3086l0.29688,1.8711c0,0.02344 0.35156,2.2773 1.7734,2.0156c0.33984,-0.05469 0.58984,-0.24219 0.77734,-0.58984c0.55469,-1.0039 0.59375,-3.5781 -1.0977,-7.5391l1.2812,-0.55469c1.7695,4.1367 3.8633,5.9922 5.1562,5.9883c0.26172,0 0.5,-0.07812 0.71875,-0.23438c0.30078,-0.22266 0.46484,-0.47656 0.50781,-0.80078c0.09375,-0.73438 -0.46484,-1.6367 -0.67188,-1.8945l-1.1602,-1.4688l1.8359,0.33984c1.8555,0.35156 2.9219,0.14063 3.0352,-0.08984c0.12891,-0.26953 -0.23047,-1.0078 -0.53906,-1.3984c-1.1133,-1.4219 -5.5898,-2.4688 -7.2188,-2.75l0.23047,-1.3828c0.02734,0.0039 0.33594,0.05078 0.86328,0.05078c1.1406,0 2.9609,-0.19531 5.1445,-1.1328c0.89453,-0.37891 1.2227,-0.75781 1.2305,-0.97266c0.01563,-0.39062 -0.69531,-0.99219 -1.2148,-1.2773l-1.0195,-0.54688l0.95703,-0.64453c1.1133,-0.75 1.1602,-1.1211 1.1602,-1.125c-0.09375,-0.18359 -0.88672,-0.46484 -1.5742,-0.53125c-0.16406,-0.01172 -0.33984,-0.02344 -0.51562,-0.02344c-3.7188,0 -6.5977,3.1211 -6.625,3.1484l-1.3984,1.5391l0.18359,-2.0703c0.21875,-2.3984 -0.6875,-5.1523 -1.668,-6.2266c-0.25781,-0.28125 -0.50391,-0.42969 -0.69922,-0.42969c-1.4688,0.38672 -1.7344,2.4258 -1.7344,2.4453l-0.13672,1.3438l-1.0078,-0.89062c-0.01172,-0.01172 -1.5664,-1.1914 -2.543,-0.59766c-0.15625,0.09375 -0.20703,0.35156 -0.22266,0.54688c-0.10156,1.4102 1.2773,4.2969 3.1992,5.8984l1.6016,1.332l-2.2578,-0.10156c-0.72656,0 -4.4844,0.13281 -6.5586,2.8125c-0.42188,0.57812 -0.69531,1.3047 -0.60547,1.4766c0,0 0.52734,0.17969 1.5078,-0.02734l1.0859,-0.22266l-0.26172,1.0742c-0.125,0.50391 -0.18359,1.3984 0.07813,1.7344c0.0625,0.07422 0.125,0.4375 1.4688,-0.13281c3.1992,-1.3672 4.5742,-3.4141 4.5859,-3.4375l1.1758,0.75781c-0.84375,1.3398 -2.9844,5.207 -2.6992,6.9883c0.10156,0.62109 0.4375,1.3906 0.6875,1.3906c0.0664,0 0.67188,-0.05469 1.8945,-2.0508l0.99237,-1.60938z"/>
  <path stroke="#7f0000" fill="#BF7E96" id="svg_35" d="m339.32,33.75014s0.89062,-1.5781 2.2461,-1.3945c1.3672,0.19141 1.2812,3.6797 0.13281,5.8242c0,0 3.2305,-1.5 5.9961,-0.03516c0,0 2.7656,1.5391 -0.33984,2.1445c0,0 1.8242,2.2969 -1.0312,2.2969c-2.8438,0 -4.5078,-1.0586 -4.5078,-1.0586s3.7109,2.4297 4.168,4.1445c0,0 0.88672,3.3164 -2.8125,0.82422c0,0 0.55859,2.0664 -1.0195,2.4453c-1.5742,0.37109 -2.8516,-2 -2.8516,-5.9453c0,3.9414 -1.2031,6.3164 -2.6836,5.9453c-1.4883,-0.375 -0.96484,-2.4453 -0.96484,-2.4453c-3.4766,2.4883 -2.6484,-0.82422 -2.6484,-0.82422c0.42578,-1.7188 3.9258,-4.1445 3.9258,-4.1445s-1.5625,1.0586 -4.2461,1.0586c-2.6875,0 -0.96484,-2.2969 -0.96484,-2.2969c-2.9297,-0.59766 -0.33203,-2.1445 -0.33203,-2.1445c2.6406,-1.4648 5.6875,0.03516 5.6875,0.03516c-1.082,-2.1445 -1.0547,-5.6328 0.23047,-5.8242c1.2852,-0.1875 2.0156,1.3945 2.0156,1.3945l-0.00013,0z"/>
  <path fill="#e5e5e5" id="svg_38" d="m112.6,84.04014c-0.10156,0 -0.20703,-0.00391 -0.3125,-0.01562c-0.65625,-0.08985 -1.1797,-0.45313 -1.5352,-1.0547c-0.30859,-0.51953 -0.46875,-1.2109 -0.48828,-2.0156c-1.1602,1.2695 -2.4766,1.6406 -3.4492,0.95703c-0.86328,-0.60938 -0.96484,-1.4883 -0.78906,-2.2734c-1.25,0.1289 -1.8086,-0.36329 -2.0156,-0.76563c-0.46875,-0.90625 0.28516,-2.0625 0.44141,-2.2852c0.4375,-0.62891 1.3008,-1.1602 2.2188,-1.5859c-0.34766,-0.09375 -0.71094,-0.20704 -1.0859,-0.35157c-0.98047,-0.375 -1.5117,-0.91797 -1.5781,-1.6133c-0.0625,-0.60547 0.27344,-1.1328 0.63281,-1.5117c-0.36328,-0.35156 -0.68359,-0.83984 -0.56641,-1.418c0.20703,-1.0234 1.6055,-1.3398 2.0312,-1.4062c2.0703,-0.32422 3.6445,0.53125 4.7031,1.2695c0.16406,-1.5195 0.72656,-3.0703 1.4766,-3.8984c0.51562,-0.57031 1.0195,-0.69531 1.3477,-0.69531l0.30078,0.03516c0.91406,0.20703 1.4336,0.91797 1.6953,1.6172c0.68359,-0.30859 1.6953,-0.44141 2.4688,-0.01172c0.46484,0.25391 0.75,0.72656 0.8125,1.332c0.11719,1.1367 -0.55469,2.8047 -1.5859,4.1445c1.3281,0.18359 3.2578,0.72266 4.6133,2.2773c0.28125,0.33594 1.125,1.4609 0.70703,2.3594c-0.15625,0.33984 -0.54688,0.75 -1.4766,0.76172c0.01563,0.42969 -0.05078,0.92969 -0.33594,1.3164c-0.30859,0.42188 -1.1484,0.86328 -2.5352,0.33203c-0.41406,-0.15625 -0.79688,-0.33203 -1.1406,-0.50781c0.42969,0.94141 0.74609,1.9258 0.66016,2.6875c-0.10156,0.95312 -0.59375,2.0703 -1.6641,2.0703c-0.53906,0 -1.0859,-0.30078 -1.6914,-0.94141c-0.34766,0.63672 -0.93359,1.1914 -1.8594,1.1914l-0.0001,0.00003zm-0.09375,-7.0352c-1.0625,2.7656 -0.96484,4.5586 -0.55469,5.2539c0.17969,0.29688 0.37891,0.35156 0.51953,0.375l0.125,0.00391c0.75781,0 0.90625,-1.2891 0.90625,-1.3047l0.20703,-1.8438l1.0625,1.5195c0.95312,1.3672 1.3789,1.3906 1.3789,1.3906c0.08594,-0.0625 0.23438,-0.48828 0.26953,-0.82422c0.11719,-1.0938 -1.3281,-3.5742 -2.2734,-4.8828l1.1328,-0.82812c0.01172,0.01172 1.1094,1.4492 3.5156,2.375c0.38672,0.14453 0.61719,0.17969 0.74609,0.17969c0.26953,-0.18359 0.23047,-0.73828 0.11719,-1.0938l-0.34766,-1.1016l1.1367,0.20312c0.60938,0.10547 0.99609,0.02734 1.0039,0.02734c-0.07813,-0.01562 -0.32422,-0.46484 -0.57813,-0.77344c-1.5195,-1.7422 -4.0547,-1.875 -4.793,-1.875l-0.23047,0l-2.0703,0.12891l1.5664,-1.3594c1.3438,-1.1641 2.2734,-3.1523 2.1797,-4.0898c-0.00391,-0.05078 -0.02734,-0.21875 -0.09375,-0.25391c-0.59375,-0.33203 -1.5898,0.23437 -1.8125,0.42187l-1.043,0.85547l-0.10547,-1.3477c0,-0.01172 -0.11719,-1.2266 -0.83984,-1.3945c-0.02344,0 -0.14062,0.03906 -0.30859,0.23047c-0.67578,0.74609 -1.3086,2.7227 -1.1406,4.3672l0.20703,2.0664l-1.418,-1.5195c-0.02344,-0.02344 -2.0898,-2.1953 -4.6523,-1.8438c-0.32422,0.05469 -0.72656,0.21094 -0.86328,0.32422c0.0625,0.02344 0.21875,0.21875 0.67578,0.50781l0.92969,0.59375l-0.93359,0.58984c-0.40234,0.25781 -0.75,0.66016 -0.73438,0.80078c0.00391,0.03906 0.14062,0.23047 0.6875,0.44141c2.3594,0.91406 3.9297,0.50781 3.9375,0.50391l0.32422,1.3672c-1.5078,0.36328 -4.1211,1.2812 -4.75,2.1836c-0.19141,0.27344 -0.35937,0.68359 -0.33984,0.82812c-0.02344,0 0.125,0.03516 0.37891,0.03516c0.34766,0 0.8125,-0.07813 1.3828,-0.22266l1.832,-0.47656l-1.082,1.5586c-0.00391,0.01172 -0.8125,1.1797 -0.14453,1.6523c0.08984,0.0625 0.17969,0.09375 0.28516,0.09375c0.65625,0 2.0703,-1.1641 3.2969,-4.3555l1.30471,0.51198z"/>
  <path fill="#BF7E96" id="svg_40" d="m357.96,211.75014c-1.1602,0 -1.6367,-1.5781 -1.7266,-1.8984c-0.46484,-1.9375 0.19531,-3.6797 0.82812,-4.8008c-1.5469,-0.02734 -3.5391,-0.49219 -4.4062,-1.4727c-0.41406,-0.47656 -0.45312,-0.93359 -0.41406,-1.2383c0.11719,-0.92969 0.78516,-1.5117 1.457,-1.8359c-0.35156,-0.62891 -0.64453,-1.5273 -0.24219,-2.4531c0.15625,-0.36328 0.60547,-0.98438 1.8242,-0.98438c1.0859,0 2.4961,0.5 3.6914,1.25c0.0625,-1.3438 0.42188,-3.2969 1.8594,-4.793c0.23438,-0.24219 1.0469,-0.99609 1.8555,-0.99609c0.35156,0 0.66797,0.13281 0.89453,0.38672c0.23438,0.25391 0.37109,0.60547 0.42188,1.0859c0.125,-0.01562 0.25781,-0.02734 0.38672,-0.02734c0.74609,0 1.1484,0.33203 1.3555,0.59766c0.37109,0.49219 0.42578,1.1914 0.15625,2.1406c-0.11719,0.42578 -0.25781,0.81641 -0.39844,1.1797c0.88672,-0.50781 1.8125,-0.90625 2.5742,-0.90625c0.33203,0.0039 1.7969,0.07812 2.1836,1.1328c0.25781,0.72266 -0.14062,1.4609 -0.70703,2.1016c0.29297,0.125 0.57812,0.30078 0.8125,0.55469c0.37891,0.39844 0.57031,0.92578 0.54688,1.5195c-0.05469,1.2773 -1.1016,2.1016 -2.8672,2.2969c0.66797,0.50391 1.1367,1.0547 1.3672,1.6133c0.24609,0.59766 0.21094,1.2031 -0.09375,1.7422c-0.44922,0.76562 -1.3086,1.1094 -2.1953,0.99219c0.14063,0.76563 0.06641,1.3281 -0.21875,1.7344c-0.25781,0.36328 -0.67187,0.57031 -1.1719,0.57031c-0.69922,0 -1.4219,-0.40234 -1.5078,-0.44922c-0.66016,-0.375 -1.2773,-1.1914 -1.7812,-2.0664c-0.0625,0.35156 -0.14062,0.72656 -0.25391,1.1133c-0.40234,1.4453 -1.1641,1.7461 -1.7305,1.7461c-0.5,0 -0.94531,-0.24609 -1.2891,-0.51953c-0.28125,0.35156 -0.69141,0.68359 -1.2109,0.68359l-0.00005,-0.00005zm2.4258,-8.5977l-1.3828,1.5469c-0.01562,0.02344 -2.0117,2.3008 -1.4062,4.8047c0.08594,0.29688 0.25391,0.64844 0.375,0.80078c0.08984,-0.07812 0.25391,-0.26172 0.46875,-0.69531l0.50781,-0.97266l0.67188,0.86719c0.23438,0.30859 0.66016,0.66016 0.85547,0.66016c0.05078,0 0.22266,-0.16797 0.37891,-0.72656c0.64844,-2.3125 0.14062,-3.9414 0.13281,-3.9609l1.3281,-0.44922c0.50391,1.4609 1.6641,3.9805 2.6133,4.5312c0.14453,0.08594 0.54688,0.26172 0.80469,0.26172l0.00391,0c0.03515,0 0.19141,-0.36328 -0.30078,-1.7461l-0.64453,-1.7734l1.6523,0.93359c0.25781,0.15234 1.332,0.55469 1.6562,-0.00391c0.0625,-0.10547 0.11719,-0.25781 0.01172,-0.50781c-0.29688,-0.71875 -1.668,-1.8438 -4.5859,-2.6719l0.37891,-1.3438c1.1992,0.33984 2.3359,0.51953 3.2812,0.51953c1.0977,0 2.2891,-0.26172 2.3203,-1.0039c0.01171,-0.28125 -0.08594,-0.41016 -0.16406,-0.5c-0.32422,-0.33984 -1.0469,-0.42188 -1.2227,-0.42188l-1.8633,-0.02343l1.4219,-1.21481c1.2695,-1.07029 1.2539,-1.4961 1.2539,-1.5c-0.06641,-0.07421 -0.50781,-0.18358 -0.83984,-0.19141c-1.125,0 -3.4453,1.6641 -4.6484,2.7031l-0.92969,-1.0469c0.01562,-0.01171 1.3398,-1.23829 2.0391,-3.71879c0.16797,-0.59767 0.11328,-0.85548 0.07421,-0.90625c-0.01562,-0.03516 -0.87891,0.05468 -1.0586,0.12891l-1.0586,0.4375l0.09375,-1.1406c0.07422,-0.79688 -0.0625,-0.99609 -0.0625,-1.0039c-0.0039,0.08593 -0.4375,0.37109 -0.71094,0.64453c-1.8984,1.9805 -1.418,5.14449 -1.4102,5.1797l0.33594,2.0664l-1.5117,-1.457c-1.043,-1.0039 -2.8164,-1.8125 -3.9648,-1.8125c-0.32031,0 -0.51562,0.07421 -0.54687,0.14062c-0.33984,0.78906 0.58203,1.7656 0.58203,1.7695l0.92969,0.95703l-1.3086,0.22266c-0.01171,0.0039 -1.2109,0.22266 -1.3047,0.96484c0.50391,0.60547 1.9609,1.125 3.5742,1.125c0.41016,0 0.79688,-0.03516 1.1406,-0.10548l2.03913,-0.36714z"/>
  <path stroke="#7f0000" fill="#BF7E96" id="svg_41" d="m334.95,3.59014s2.0117,-1.4062 3.6406,-0.39844c1.6445,1.0195 -0.37891,5.2188 -3.0234,7.1719c0,0 4.9609,0.03906 7.6953,3.4219c0,0 2.6992,3.4766 -1.6055,2.4141c0,0 1.0742,3.8516 -2.5742,2.207c-3.6406,-1.6406 -5.1914,-3.8906 -5.1914,-3.8906s3.4219,5.1016 3.0625,7.4531c0,0 -0.68359,4.5547 -4.0547,-0.61719c0,0 -0.42187,2.8438 -2.6484,2.3906c-2.2188,-0.45312 -2.543,-4.082 -0.37891,-8.8828c-2.1602,4.8047 -5.0078,7 -6.6992,5.6953c-1.7031,-1.3164 0.11328,-3.5352 0.11328,-3.5352c-5.8203,1.0312 -2.9297,-2.5312 -2.9297,-2.5312c1.4883,-1.8477 7.3008,-2.7891 7.3008,-2.7891s-2.5859,0.38672 -6.0156,-1.1602c-3.4453,-1.5508 0.02734,-3.3555 0.02734,-3.3555c-3.4219,-2.4258 0.76172,-2.8008 0.76172,-2.8008c4.1445,-0.28125 7.2188,3.3047 7.2188,3.3047c-0.20703,-3.2383 1.7539,-7.4688 3.4961,-6.9648c1.7305,0.51953 1.8047,2.8672 1.8047,2.8672l-0.00013,0.00003z"/>
  <path fill="#BF7E96" id="svg_44" d="m381.56,187.48014c-1.0312,0 -2.0312,-0.98438 -2.2227,-1.1797c-0.80078,-0.81641 -1.3164,-2.3203 -1.6523,-3.7734c-0.24219,0.56641 -0.54688,1.1602 -0.94141,1.7734c-0.60938,0.95312 -1.293,1.4336 -2.043,1.4336c-0.90625,0 -1.5781,-0.73438 -1.9805,-1.3477c-0.93359,0.67578 -1.793,0.69531 -2.3906,0.10156c-0.71875,-0.72266 -0.73828,-2.1289 -0.73828,-2.4023c0.07813,-2.6562 1.6875,-4.5352 2.8945,-5.582c-2.2344,-0.66797 -4.457,-2.0703 -5.2148,-3.4102c-0.41406,-0.73828 -0.32031,-1.3086 -0.16406,-1.6641c0.39844,-0.91406 1.2891,-1.4609 2.5273,-1.5625c-0.26172,-0.87891 -0.38672,-2.1328 0.46094,-3.1211c0.23438,-0.26953 0.66797,-0.58203 1.3945,-0.58203c1.6406,0 3.9141,1.625 5.4414,3.4258c0.47656,-1.5977 1.5781,-4.0039 4.0312,-5.293c0.11719,-0.0625 1.0625,-0.52734 1.9258,-0.52734c0.75,0 1.1406,0.34766 1.3398,0.62891c0.29688,0.42578 0.35156,0.99609 0.18359,1.7539c0.72656,0.09375 1.5781,0.36328 1.9805,1.1016c0.38672,0.71094 0.24219,1.6133 -0.44141,2.6836c-0.42969,0.66797 -0.87891,1.25 -1.3164,1.7344c1.5273,-0.36328 3.1875,-0.54297 4.1953,-0.19141c0.35156,0.11719 2.1055,0.77344 2.1445,2.1094c0.02344,0.93359 -0.80469,1.6367 -1.7578,2.1562c0.875,0.64453 1.5977,1.6562 1.1484,3c-0.20703,0.63281 -0.85156,1.6914 -2.8008,1.6914c-0.58203,0 -1.2227,-0.10156 -1.9102,-0.28125c0.87891,1.0352 1.3945,2.0273 1.4688,2.8945c0.0625,0.73438 -0.17188,1.3672 -0.6875,1.8359c-0.86719,0.80078 -2.2188,0.66016 -3.1406,0.15625c-0.04297,0.91797 -0.25391,1.5508 -0.62109,1.9609c-0.30078,0.3125 -0.67969,0.47656 -1.1133,0.47656l0.00022,0.00015zm-3.0352,-8.8438c0.10156,1.4453 0.60938,5.4531 1.8125,6.6875c0.35156,0.35156 1.082,0.92578 1.2812,0.72656c0.06641,-0.07422 0.37891,-0.51953 0.22266,-2.375l-0.15625,-1.9375l1.3594,1.3906c0.34766,0.35156 1.6758,1.3906 2.4297,0.71094c0.11719,-0.10547 0.26953,-0.29297 0.23438,-0.67578c-0.08984,-1.0352 -1.457,-3.0508 -5.0195,-5.332l0.75781,-1.1797c2.3594,1.5117 4.5742,2.3789 6.0977,2.3789c0.81641,0 1.3086,-0.24609 1.4766,-0.72656c0.41016,-1.2539 -1.6055,-1.9414 -1.6289,-1.9531l-1.8125,-0.60547l1.7812,-0.70703c2.1523,-0.85156 2.1992,-1.418 2.1992,-1.4219c-0.00391,-0.20312 -0.61719,-0.62891 -1.1914,-0.81641c-0.24609,-0.08594 -0.57031,-0.125 -0.95703,-0.125c-2.3477,0 -5.9922,1.5 -6.0312,1.5195l-0.54688,-1.2891c0.02344,-0.00391 2.1602,-0.96484 3.9258,-3.7188c0.54297,-0.83984 0.44141,-1.1719 0.39844,-1.2539c-0.13281,-0.24609 -0.74609,-0.42188 -1.4727,-0.42188l-1.2773,0.07812l0.38672,-1.0234c0.40234,-1.04689 0.26953,-1.34379 0.25781,-1.3672c-0.00391,0 -0.05469,-0.02343 -0.18359,-0.02343c-0.44922,0 -1.0742,0.26953 -1.2812,0.36328c-3.1406,1.6641 -3.625,5.7578 -3.6289,5.8008l-0.22266,2.0703l-1.0703,-1.7852c-1.3008,-2.1914 -3.9375,-4.0664 -5.1875,-4.0664c-0.24609,0 -0.3125,0.07812 -0.33984,0.10547c-0.77344,0.89062 0.12891,2.5586 0.13281,2.5742l0.70703,1.2539l-1.4219,-0.21875c-0.02344,0 -0.21875,-0.02735 -0.49219,-0.02735c-0.50781,0 -1.4062,0.10156 -1.6914,0.75c-0.05078,0.11719 0.05469,0.32422 0.10547,0.40234c0.63672,1.1328 3.3438,2.75 5.7383,3.0586l2.0664,0.26953l-1.8086,1.0352c-0.03516,0.02344 -3.3984,1.9883 -3.5,5.3555c0,0.63281 0.19531,1.332 0.35156,1.4062c-0.02734,-0.0039 0.3125,0.03516 1.0742,-0.73438l0.74609,-0.73828l0.39844,0.96875c0.22266,0.54297 0.76172,1.3203 1.1367,1.3203c0.22266,0 0.54688,-0.29688 0.86328,-0.78906c1.6523,-2.582 1.5625,-4.8008 1.5625,-4.8203l1.41784,-0.09361z"/>
  <path stroke="#7f0000" fill="#BF7E96" id="svg_45" d="m468.93,93.43014s2.7773,-0.23437 3.6016,1.5781c0.81641,1.8359 -3.8398,4.6641 -7.5547,5.0742c0,0 4.5078,2.6953 4.7539,7.3203c0,0 0.14062,4.6914 -3.0859,1.3906c0,0 -1.5859,4.1719 -3.832,0.67578c-2.2305,-3.4844 -2.1406,-6.4102 -2.1406,-6.4102s-0.28125,6.5859 -2.1836,8.5898c0,0 -3.6641,3.875 -3.293,-2.7422c0,0 -2.2734,2.4297 -4.0078,0.8125c-1.7266,-1.6133 0.39062,-5.1758 5.5781,-8.4961c-5.1875,3.3203 -9.2461,3.8477 -9.918,1.7188c-0.67578,-2.1406 2.4531,-3.2383 2.4531,-3.2383c-5.9922,-2.168 -0.98438,-3.9375 -0.98438,-3.9375c2.5938,-0.92578 8.5234,1.3203 8.5234,1.3203s-2.6211,-1.0234 -4.7227,-4.3047c-2.1172,-3.293 2.2617,-3.1133 2.2617,-3.1133c-1.5117,-4.0977 2.5586,-2.207 2.5586,-2.207c3.9688,1.9609 4.3867,6.957 4.3867,6.957c1.9727,-3.1289 6.5859,-6.0312 7.8398,-4.6211c1.2617,1.4062 -0.23438,3.6328 -0.23438,3.6328l0.00016,0.00022z"/>
  <path stroke="#7f0000" fill="#BF7E96" id="svg_47" d="m431.92,55.89014s-0.42188,-3.1914 1.6133,-4.1953c2.0508,-1.0117 5.543,4.2578 6.2109,8.5234c0,0 2.8398,-5.2812 8.1133,-5.7227c0,0 5.3594,-0.33203 1.7578,3.5039c0,0 4.8555,1.6875 0.98047,4.3906c-3.8633,2.6875 -7.2227,2.6836 -7.2227,2.6836s7.5586,0.10156 9.9531,2.2188c0,0 4.6328,4.0898 -2.9688,3.8906c0,0 2.9062,2.543 1.1484,4.5938c-1.7539,2.0391 -5.9414,-0.28125 -10.02,-6.1445c4.082,5.8594 4.8945,10.527 2.4961,11.379c-2.4141,0.84375 -3.8398,-2.7227 -3.8398,-2.7227c-2.1562,6.9883 -4.4531,1.2773 -4.4531,1.2773c-1.1992,-2.957 1.0469,-9.8789 1.0469,-9.8789s-1.0312,3.0586 -4.6719,5.5938c-3.6523,2.5469 -3.6797,-2.5039 -3.6797,-2.5039c-4.6094,1.875 -2.6719,-2.8711 -2.6719,-2.8711c2.0273,-4.6484 7.7227,-5.2969 7.7227,-5.2969c-3.6914,-2.1602 -7.2578,-7.3789 -5.7188,-8.875c1.5781,-1.5039 4.2031,0.15625 4.2031,0.15625l0.00063,-0.00005z"/>
  <path fill="#BF7E96" id="svg_52" d="m207.23,181.76014c-0.90234,0 -1.4883,-0.70703 -1.7539,-2.1016c-0.91406,0.35938 -2.2188,0.42188 -2.8711,-0.3125c-0.52734,-0.58203 -0.70703,-1.5195 -0.55469,-2.8438c0.12891,-1.1523 0.35156,-2.1836 0.61719,-3.0703c-1.4062,1.3086 -3.0625,2.5703 -4.4336,2.7773c0,0 -0.32422,0.05469 -0.75781,0.05469c-1.5586,0 -2.1836,-0.62891 -2.4297,-1.1523c-0.39844,-0.85156 -0.11328,-1.9609 0.91406,-3.4336c-1.6133,-0.21875 -2.6445,-1.1719 -2.8047,-2.6328c-0.09375,-0.85156 0.16797,-1.6523 0.75781,-2.3125c0.78906,-0.87891 2.1211,-1.5 3.875,-1.8086c-1.5859,-0.65625 -2.7422,-1.4883 -3.3281,-2.4414c-0.47656,-0.77344 -0.57031,-1.6055 -0.27344,-2.4062c0.44141,-1.1914 1.457,-1.8477 2.8555,-1.8477c0.14062,0 0.28516,0.00391 0.42578,0.02344c-0.58984,-1.418 -0.66797,-2.4258 -0.24219,-3.1367c0.23437,-0.38672 0.72656,-0.85547 1.7656,-0.85547c0.82422,0 1.625,0.29688 1.7148,0.33203c1.2891,0.5 2.625,2.0117 3.7109,3.5352c-0.05469,-0.86328 -0.04297,-1.8359 0.07812,-2.918c0.28125,-2.4531 1.5078,-2.8242 2.2109,-2.8242c0.67188,0 1.332,0.33203 1.8242,0.65625c0.34766,-0.74609 0.92578,-1.5781 1.8477,-1.5781c1.3594,0 2.2578,1.9219 2.4258,2.3008c1.2617,3.1094 0.37891,6.2227 -0.36328,8.0039c0.85156,-0.17969 1.7656,-0.27344 2.6836,-0.27344c2.4883,0 5.4102,0.71875 5.4727,2.7344c0.03907,1.5898 -1.0859,2.5859 -1.9648,3.1211c0.71094,0.78906 1.5859,2.1445 1.1758,3.7422c-0.16797,0.66797 -0.81641,1.7812 -3.2656,1.7812c-1.6406,0 -3.5898,-0.50781 -5.2344,-1.3281c0.32031,1.9883 0.46484,5.4336 -1.4766,8.3438c-0.23828,0.3125 -1.3867,1.8711 -2.6016,1.8711l0.00005,-0.0001zm-0.57031,-4.3906l0.08594,1.1758c0.11719,1.6016 0.47656,1.8086 0.47656,1.8125l0.00391,0c0.30858,0 1.02339,-0.67578 1.4336,-1.2656c2.48829,-3.7188 0.94531,-8.7266 0.93358,-8.7695l-0.62891,-1.9883l1.7031,1.2109c1.5977,1.1328 4.0078,1.9258 5.86721,1.9258c1.082,0 1.7969,-0.27344 1.91019,-0.72656c0.40234,-1.5977 -1.4375,-3.0078 -1.457,-3.0234l-1.043,-0.78906l1.2305,-0.42969c0.02344,-0.00391 2.0508,-0.73438 2.0039,-2.2305c-0.01562,-0.66016 -1.6562,-1.3711 -4.07029,-1.3711c-1.3594,0 -2.6953,0.22266 -3.7734,0.63672l-1.9414,0.73828l1.0977,-1.7656c0.02343,-0.03906 2.59769,-4.2617 1.00779,-8.1992c-0.30858,-0.71094 -0.88672,-1.4453 -1.13279,-1.4453c0,0 -0.39844,0.08984 -0.86328,1.5352l-0.34766,1.0703l-0.8125,-0.78516c-0.35938,-0.35156 -1.1328,-0.90234 -1.6562,-0.90234c-0.52734,0 -0.73828,0.85547 -0.82423,1.5859c-0.44922,3.8984 0.76562,6.3945 0.78516,6.418l-1.25,0.63281c-0.81641,-1.5742 -3.34769,-5.8125 -5.2148,-6.5234c-0.0039,-0.00391 -0.63672,-0.24219 -1.2109,-0.24219c-0.16797,0 -0.46875,0.02344 -0.56641,0.17969c-0.0625,0.10547 -0.32422,0.76562 0.90625,3.0625l0.89062,1.6562l-1.75779,-0.66797c-0.00391,-0.00391 -0.6875,-0.26172 -1.4219,-0.26172c-1.07421,0 -1.3984,0.53125 -1.5469,0.92969c-0.14453,0.39062 -0.09375,0.78906 0.15625,1.1914c0.70702,1.1484 3.1289,2.5664 7.8047,3.1016l-0.15625,1.3906c-3.8906,-0.45312 -7.1914,0.13281 -8.3438,1.4297c-0.33203,0.36328 -0.46484,0.76562 -0.41406,1.2227c0.11328,0.95312 0.83984,1.4375 2.168,1.4375c0.3125,0 0.53125,-0.03516 0.55469,-0.03516l1.8203,-0.28125l-1.1758,1.418c-1.8555,2.2305 -1.6523,2.957 -1.5977,3.0859c0.10156,0.21094 0.55469,0.35156 1.1641,0.35156c0.29688,0 0.51953,-0.03515 0.54297,-0.03906c1.9805,-0.30859 5.4375,-4.0977 6.5977,-5.5391l1.0938,0.86719c-0.01563,0.02344 -1.793,2.3398 -2.2734,6.5078c-0.14062,1.2148 0.10156,1.625 0.20703,1.7539c0.03515,0.03906 0.13281,0.14453 0.42969,0.14453c0.58984,0 1.3672,-0.41406 1.5898,-0.56641l1.01533,-0.6251z"/>
  <path stroke="#7f0000" fill="#BF7E96" id="svg_53" d="m164.49,160.10014s2.7383,-0.26953 3.6016,1.5352c0.85547,1.8125 -3.6797,4.6992 -7.3516,5.1406c0,0 4.5312,2.625 4.8906,7.2422c0,0 0.25781,4.6719 -3.0234,1.4102c0,0 -1.4688,4.1758 -3.7734,0.72266c-2.2891,-3.4453 -2.2734,-6.3711 -2.2734,-6.3711s-0.11328,6.5703 -1.9492,8.5898c0,0 -3.5273,3.9023 -3.3281,-2.6992c0,0 -2.1992,2.4414 -3.9531,0.85156c-1.7539,-1.5977 0.26172,-5.1641 5.3125,-8.5273c-5.0508,3.3711 -9.0664,3.9375 -9.7812,1.8203c-0.71875,-2.1172 2.3594,-3.2539 2.3594,-3.2539c-6.0039,-2.0898 -1.082,-3.9141 -1.082,-3.9141c2.5469,-0.94141 8.4766,1.2227 8.4766,1.2227s-2.6133,-0.98438 -4.7812,-4.2266c-2.1719,-3.2656 2.168,-3.1289 2.168,-3.1289c-1.5977,-4.0703 2.4805,-2.2305 2.4805,-2.2305c3.9805,1.9141 4.5234,6.8828 4.5234,6.8828c1.8711,-3.1484 6.3672,-6.0859 7.6484,-4.6992c1.2695,1.3906 -0.16406,3.6328 -0.16406,3.6328l-0.00034,-0.00002z"/>
  <path fill="#BF7E96" id="svg_56" d="m181.52,161.53014c-0.37109,0 -0.69922,-0.13281 -0.96875,-0.40234c-0.33203,-0.33594 -0.54297,-0.83984 -0.64844,-1.5781c-0.72266,0.35156 -1.7539,0.33594 -2.4531,-0.3125c-0.48047,-0.44922 -0.70703,-1.0547 -0.64844,-1.7461c0.05078,-0.60938 0.3125,-1.2656 0.77344,-1.9375c-1.6875,0.38672 -2.9727,-0.07813 -3.3711,-1.2031c-0.18359,-0.52734 -0.16406,-1.0547 0.06641,-1.5273c0.14453,-0.3125 0.36328,-0.57031 0.59766,-0.77734c-0.67187,-0.39062 -1.2266,-0.92578 -1.2148,-1.6367c0.01171,-1.1211 1.4102,-1.6758 1.6914,-1.7734c0.68359,-0.23047 1.6875,-0.19531 2.7266,-0.00391c-0.23047,-0.27344 -0.46094,-0.58203 -0.68359,-0.91406c-0.57031,-0.85547 -0.69922,-1.5977 -0.375,-2.1953c0.29688,-0.55469 0.86719,-0.80078 1.4102,-0.90234c-0.08594,-0.44141 -0.07422,-0.90234 0.18359,-1.2812c0.14062,-0.20703 0.47656,-0.55859 1.1641,-0.55859c0.67188,0 1.3984,0.34766 1.4844,0.37891c1.7695,0.89453 2.6641,2.5352 3.1016,3.7539c1.1914,-1.3555 2.8555,-2.3984 4.0156,-2.3984c0.60938,0 0.98047,0.26172 1.1797,0.48828c0.62891,0.69531 0.63672,1.5742 0.44922,2.3008c0.69922,0.14062 1.5859,0.50391 2.0273,1.4102c0.23047,0.47656 0.19141,1.0312 -0.10547,1.5586c-0.55859,0.99219 -2.0703,1.9648 -3.6836,2.4648c0.98438,0.91797 2.2344,2.4648 2.4414,4.5312c0.02734,0.35156 0.07422,1.4883 -0.49219,2.1016c-0.45312,0.5 -1.1758,0.53125 -1.9492,0c-0.3125,0.46875 -0.79688,0.95313 -1.4844,0.95313c-0.64844,0 -1.2422,-0.41406 -1.8125,-1.2695c-0.24219,-0.36328 -0.45312,-0.72656 -0.63281,-1.0703c-0.19531,1.0234 -0.50391,2 -1.0117,2.5742c-0.14062,0.16016 -0.90234,0.97266 -1.7773,0.97266l-0.00023,-0.0003zm-0.28516,-5.1641l-0.00391,1.8555c-0.0039,1.4766 0.24609,1.8477 0.30859,1.9141c0.15234,-0.01563 0.49219,-0.25781 0.71094,-0.50391c0.72656,-0.81641 0.98047,-3.6836 0.96484,-5.2969l1.3984,-0.02344c0,0.01563 0.06641,1.8242 1.4961,3.9688c0.35156,0.52734 0.58984,0.64453 0.64844,0.64453c0.11328,0 0.42969,-0.41406 0.58984,-0.89062l0.35156,-1.0859l0.80469,0.81641c0.55859,0.57031 0.80078,0.59766 0.80078,0.59766c-0.05468,-0.05469 0.00391,-0.56641 -0.02343,-0.96484c-0.27344,-2.7031 -2.9961,-4.418 -3.0234,-4.4336l-1.7656,-1.0938l2.0664,-0.19531c1.7695,-0.17188 3.6797,-1.2656 4.1445,-2.082c0.02343,-0.04297 0.10156,-0.19141 0.0664,-0.25781c-0.32031,-0.65625 -1.3203,-0.71094 -1.625,-0.71094l-1.2383,0l0.48828,-1.0547c0.00391,-0.01172 0.61719,-1.0703 0.125,-1.6172l-0.02734,0c-1.0547,0 -2.9453,1.3711 -3.8203,2.918l-1.0234,1.8086l-0.28125,-2.0625c0,-0.03515 -0.4375,-3.0234 -2.7344,-4.1953c-0.17969,-0.08984 -0.59375,-0.23438 -0.86328,-0.23438c0,0.06641 0.02734,0.32031 0.22266,0.80469l0.41406,1.0195l-1.0977,-0.05468l-0.01172,0c-0.67578,0 -1.0117,0.15233 -1.0547,0.23047c-0.01562,0.03906 -0.02344,0.26953 0.30859,0.76172c1.332,2 2.9023,2.6758 2.918,2.6836l-0.52734,1.293c-0.02734,-0.01172 -2.6992,-1.0547 -4.4297,-1.0547c-0.36328,0 -0.58984,0.05078 -0.70703,0.09375c-0.32422,0.11719 -0.70703,0.35938 -0.76172,0.49219c0.02344,0 0.23047,0.35156 1.5586,0.85547l1.7695,0.67188l-1.7852,0.64453c-0.01172,0.0039 -1.3477,0.49219 -1.0742,1.2617c0.10156,0.27344 0.40234,0.41016 0.91406,0.41016c1.1094,0 2.7383,-0.66016 4.4727,-1.8203l0.77734,1.1719c-2.4688,1.6406 -3.4219,3.1602 -3.4883,3.9609c-0.02734,0.34766 0.10547,0.51562 0.21094,0.60547c0.19141,0.17969 0.34766,0.20312 0.44922,0.20312c0.46094,0 0.99609,-0.48828 1.1484,-0.66016l1.23839,-1.39466z"/>
  <path stroke="#7f0000" fill="#BF7E96" id="svg_57" d="m189,173.87014s1.8086,-0.12891 2.4062,1.0977c0.59766,1.2422 -2.3516,3.1094 -4.7695,3.3438c0,0 3.0352,1.8594 3.3555,4.9766c0,0 0.25391,3.1602 -1.9727,0.90625c0,0 -0.89453,2.7891 -2.4805,0.41406c-1.5742,-2.3633 -1.6133,-4.3398 -1.6133,-4.3398s0.03906,4.4414 -1.1406,5.7695c0,0 -2.2695,2.5742 -2.2461,-1.8828c0,0 -1.4102,1.6133 -2.5977,0.50781c-1.1797,-1.1016 0.08594,-3.4766 3.3672,-5.668c-3.2812,2.1914 -5.9258,2.4922 -6.4336,1.0586c-0.50781,-1.4492 1.5,-2.1562 1.5,-2.1562c-4.0039,-1.5195 -0.78516,-2.6719 -0.78516,-2.6719c1.6641,-0.58984 5.6211,0.97266 5.6211,0.97266s-1.7461,-0.71094 -3.2305,-2.9414c-1.4961,-2.2383 1.3789,-2.0781 1.3789,-2.0781c-1.125,-2.7656 1.6016,-1.457 1.6016,-1.457c2.6641,1.3555 3.1094,4.7266 3.1094,4.7266c1.1797,-2.0938 4.0977,-4.0039 4.9727,-3.0391c0.86328,0.97266 -0.04297,2.4609 -0.04297,2.4609l0.00003,-0.00018z"/>
  <path stroke="#7f0000" fill="#BF7E96" id="svg_59" d="m259.86,14.24014s2.418,-0.22266 3.1875,1.3828c0.76562,1.625 -3.2266,4.1484 -6.4727,4.5234c0,0 4.0078,2.3633 4.3516,6.4531c0,0 0.25391,4.1484 -2.6602,1.25c0,0 -1.2773,3.7031 -3.332,0.60938c-2.043,-3.0703 -2.0508,-5.6602 -2.0508,-5.6602s-0.0625,5.8359 -1.6758,7.6172c0,0 -3.0977,3.4492 -2.9453,-2.4141c0,0 -1.9336,2.1562 -3.4961,0.73438c-1.5508,-1.4219 0.20703,-4.582 4.6523,-7.543c-4.4453,2.9609 -7.9922,3.4375 -8.6289,1.5625c-0.64844,-1.8867 2.0625,-2.8711 2.0625,-2.8711c-5.3125,-1.8867 -0.98047,-3.4844 -0.98047,-3.4844c2.2461,-0.82812 7.5039,1.125 7.5039,1.125s-2.3242,-0.89062 -4.2578,-3.7852c-1.9336,-2.9062 1.8984,-2.7656 1.8984,-2.7656c-1.4297,-3.6172 2.1914,-1.9609 2.1914,-1.9609c3.5273,1.7188 4.0312,6.1328 4.0312,6.1328c1.6367,-2.7812 5.5938,-5.3633 6.7383,-4.1289c1.1367,1.2461 -0.11719,3.2227 -0.11719,3.2227l0.00016,0.00014z"/>
  <path fill="#BF7E96" id="svg_62" d="m232.07,50.04014c-0.37109,0 -0.69922,-0.14062 -0.96875,-0.41016c-0.33203,-0.33203 -0.54297,-0.84375 -0.64844,-1.5781c-0.72266,0.35156 -1.7539,0.33984 -2.4531,-0.3125c-0.48047,-0.45312 -0.70703,-1.0547 -0.64844,-1.7461c0.05078,-0.60938 0.3125,-1.2656 0.77344,-1.9336c-1.6953,0.375 -2.9727,-0.08594 -3.3711,-1.2031c-0.18359,-0.51953 -0.16406,-1.0547 0.06641,-1.5273c0.14453,-0.30859 0.36328,-0.56641 0.59766,-0.77734c-0.67188,-0.39062 -1.2266,-0.91797 -1.2148,-1.6289c0.01172,-1.1211 1.4102,-1.6758 1.6914,-1.7734c0.67578,-0.24219 1.6875,-0.20703 2.7266,-0.01172c-0.23047,-0.27344 -0.46094,-0.57813 -0.68359,-0.91406c-0.57031,-0.85547 -0.69922,-1.5977 -0.375,-2.1953c0.29688,-0.54687 0.86719,-0.79687 1.4102,-0.90234c-0.08594,-0.44141 -0.07422,-0.90625 0.18359,-1.2812c0.14062,-0.20703 0.47656,-0.55859 1.1641,-0.55859c0.67578,0 1.3984,0.33984 1.4844,0.37891c1.7695,0.90234 2.6641,2.543 3.1016,3.7539c1.1914,-1.3555 2.8555,-2.3906 4.0156,-2.3906c0.60938,0 0.98047,0.26172 1.1797,0.48047c0.62891,0.69922 0.63672,1.5742 0.44922,2.3008c0.69922,0.14063 1.5859,0.5 2.0273,1.4102c0.16406,0.33984 0.27344,0.87891 -0.11328,1.5586c-0.55859,0.99219 -2.0703,1.9648 -3.6836,2.4688c0.98438,0.91797 2.2305,2.457 2.4414,4.5234c0.02734,0.35156 0.07422,1.4883 -0.49219,2.1016c-0.46094,0.5 -1.1758,0.52734 -1.9414,0c-0.30859,0.47656 -0.79688,0.95313 -1.4844,0.95313c-0.64844,0 -1.2422,-0.41406 -1.8125,-1.2695c-0.24219,-0.36328 -0.45312,-0.72656 -0.63281,-1.0703c-0.19531,1.0195 -0.50391,2.0039 -1.0117,2.5742c-0.14062,0.16797 -0.90234,0.98047 -1.7773,0.98047l-0.00022,-0.00037zm-0.28516,-5.168l-0.00391,1.8477c-0.0039,1.4766 0.24609,1.8555 0.30859,1.9141c0.15234,-0.01563 0.49219,-0.25781 0.71094,-0.50391c0.72656,-0.82422 0.98047,-3.6836 0.96484,-5.2969l1.3984,-0.02344c0,0.01563 0.06641,1.8242 1.4961,3.9648c0.35156,0.52734 0.59375,0.64844 0.64844,0.64844c0.125,0 0.44922,-0.46094 0.58203,-0.89062l0.35156,-1.1016l0.8125,0.82422c0.55859,0.56641 0.79688,0.59766 0.80078,0.59766c-0.05468,-0.05469 0.00391,-0.56641 -0.02343,-0.96484c-0.27344,-2.7031 -2.9961,-4.4141 -3.0234,-4.4297l-1.7656,-1.0859l2.0625,-0.20703c1.7695,-0.17188 3.6797,-1.2617 4.1445,-2.082c0.03515,-0.05469 0.10156,-0.19531 0.0664,-0.26172c-0.32031,-0.65625 -1.3203,-0.70703 -1.6172,-0.70703l-1.2383,0l0.48047,-1.0586c0.00391,-0.0039 0.61719,-1.0625 0.11719,-1.6172c-1.0234,0 -2.9688,1.3594 -3.8477,2.918l-1.0234,1.8086l-0.28125,-2.0625c0,-0.02734 -0.4375,-3.0234 -2.7344,-4.1953c-0.17969,-0.08594 -0.59375,-0.23438 -0.86328,-0.23438c0,0.06641 0.02344,0.32031 0.22266,0.8125l0.41406,1.0195l-1.0977,-0.05469l-0.01172,0c-0.67578,0 -1.0117,0.15234 -1.0547,0.23438c-0.01562,0.03515 -0.02343,0.26171 0.30859,0.75781c1.332,2 2.9023,2.6758 2.918,2.6836l-0.52734,1.3008c-0.02734,-0.01172 -2.6953,-1.0547 -4.418,-1.0547c-0.37109,0 -0.59375,0.05078 -0.71094,0.09375c-0.32422,0.11719 -0.70703,0.36328 -0.76172,0.49219c0.02344,0 0.23047,0.35156 1.5586,0.85547l1.7695,0.67188l-1.7852,0.64453c-0.01172,0.0039 -1.3477,0.49219 -1.0742,1.2656c0.10156,0.26953 0.40234,0.41016 0.91406,0.41016c1.1094,0 2.7383,-0.66016 4.4727,-1.8203l0.77734,1.16409c-2.4648,1.64061 -3.4219,3.16021 -3.4883,3.9648c-0.02734,0.34766 0.10547,0.51563 0.21094,0.60938c0.19141,0.17188 0.34766,0.19531 0.44922,0.19531c0.46094,0 0.99609,-0.48828 1.1484,-0.66016l1.24238,-1.38675z"/>
  <path stroke="#7f0000" fill="#BF7E96" id="svg_65" d="m431.4,87.79014s1.8086,-0.13281 2.4062,1.0977c0.59375,1.2422 -2.3516,3.1094 -4.7773,3.3438c0,0 3.0391,1.8594 3.3594,4.9727c0,0 0.25391,3.1602 -1.9766,0.90625c0,0 -0.89453,2.7891 -2.4805,0.41406c-1.5742,-2.3633 -1.6133,-4.3398 -1.6133,-4.3398s0.03906,4.4414 -1.1367,5.7695c0,0 -2.2695,2.5742 -2.2461,-1.8828c0,0 -1.4102,1.6133 -2.5977,0.50781c-1.1797,-1.1016 0.08984,-3.4766 3.3711,-5.668c-3.2812,2.1914 -5.9297,2.4922 -6.4336,1.0586c-0.50781,-1.4492 1.5078,-2.1562 1.5078,-2.1562c-4.0039,-1.5195 -0.78906,-2.6641 -0.78906,-2.6641c1.668,-0.59375 5.6289,0.96875 5.6289,0.96875s-1.7461,-0.71094 -3.2305,-2.9414c-1.4961,-2.2383 1.3789,-2.0781 1.3789,-2.0781c-1.125,-2.7734 1.6016,-1.4609 1.6016,-1.4609c2.6641,1.3594 3.1133,4.7266 3.1133,4.7266c1.1797,-2.0938 4.0977,-4 4.9727,-3.0352c0.85156,0.97656 -0.05859,2.4609 -0.05859,2.4609l0.00005,-0.00017z"/>
 </g>
</svg>